solid OpenSCAD_Model
  facet normal -0.471394 0.881923 0
    outer loop
      vertex -47.6811 -16.7755 45
      vertex -47.9421 -16.9151 50
      vertex -47.6811 -16.7755 50
    endloop
  endfacet
  facet normal -0.471399 0.88192 -3.36426e-07
    outer loop
      vertex -47.9421 -16.9151 50
      vertex -47.6811 -16.7755 45
      vertex -47.9421 -16.9151 45
    endloop
  endfacet
  facet normal 0.956942 0.29028 0
    outer loop
      vertex -49.9151 -16.0979 50
      vertex -50.001 -15.8146 45
      vertex -50.001 -15.8146 50
    endloop
  endfacet
  facet normal 0.956942 0.29028 0
    outer loop
      vertex -50.001 -15.8146 45
      vertex -49.9151 -16.0979 50
      vertex -49.9151 -16.0979 45
    endloop
  endfacet
  facet normal -0.995185 -0.0980184 0
    outer loop
      vertex -47.01 -15.52 45
      vertex -47.039 -15.2254 50
      vertex -47.039 -15.2254 45
    endloop
  endfacet
  facet normal -0.995185 -0.0980184 0
    outer loop
      vertex -47.039 -15.2254 50
      vertex -47.01 -15.52 45
      vertex -47.01 -15.52 50
    endloop
  endfacet
  facet normal 0.290287 -0.95694 0
    outer loop
      vertex -49.0979 -14.1249 45
      vertex -48.8146 -14.039 50
      vertex -49.0979 -14.1249 50
    endloop
  endfacet
  facet normal 0.290287 -0.95694 0
    outer loop
      vertex -48.8146 -14.039 50
      vertex -49.0979 -14.1249 45
      vertex -48.8146 -14.039 45
    endloop
  endfacet
  facet normal 0.290287 0.95694 -0
    outer loop
      vertex -48.8146 -17.001 45
      vertex -49.0979 -16.9151 50
      vertex -48.8146 -17.001 50
    endloop
  endfacet
  facet normal 0.290281 0.956941 -3.65044e-07
    outer loop
      vertex -49.0979 -16.9151 50
      vertex -48.8146 -17.001 45
      vertex -49.0979 -16.9151 45
    endloop
  endfacet
  facet normal 0.881923 0.471394 0
    outer loop
      vertex -49.7755 -16.3589 50
      vertex -49.9151 -16.0979 45
      vertex -49.9151 -16.0979 50
    endloop
  endfacet
  facet normal 0.881923 0.471394 0
    outer loop
      vertex -49.9151 -16.0979 45
      vertex -49.7755 -16.3589 50
      vertex -49.7755 -16.3589 45
    endloop
  endfacet
  facet normal 0.881923 -0.471394 0
    outer loop
      vertex -49.9151 -14.9421 50
      vertex -49.7755 -14.6811 45
      vertex -49.7755 -14.6811 50
    endloop
  endfacet
  facet normal 0.881923 -0.471394 0
    outer loop
      vertex -49.7755 -14.6811 45
      vertex -49.9151 -14.9421 50
      vertex -49.9151 -14.9421 45
    endloop
  endfacet
  facet normal -0.881923 0.471394 0
    outer loop
      vertex -47.2645 -16.3589 45
      vertex -47.1249 -16.0979 50
      vertex -47.1249 -16.0979 45
    endloop
  endfacet
  facet normal -0.881923 0.471394 0
    outer loop
      vertex -47.1249 -16.0979 50
      vertex -47.2645 -16.3589 45
      vertex -47.2645 -16.3589 50
    endloop
  endfacet
  facet normal -0.773008 0.634396 0
    outer loop
      vertex -47.4523 -16.5877 45
      vertex -47.2645 -16.3589 50
      vertex -47.2645 -16.3589 45
    endloop
  endfacet
  facet normal -0.773008 0.634396 0
    outer loop
      vertex -47.2645 -16.3589 50
      vertex -47.4523 -16.5877 45
      vertex -47.4523 -16.5877 50
    endloop
  endfacet
  facet normal -0.634399 0.773006 0
    outer loop
      vertex -47.4523 -16.5877 45
      vertex -47.6811 -16.7755 50
      vertex -47.4523 -16.5877 50
    endloop
  endfacet
  facet normal -0.634399 0.773006 0
    outer loop
      vertex -47.6811 -16.7755 50
      vertex -47.4523 -16.5877 45
      vertex -47.6811 -16.7755 45
    endloop
  endfacet
  facet normal -0.0980184 0.995185 0
    outer loop
      vertex -48.2254 -17.001 45
      vertex -48.52 -17.03 50
      vertex -48.2254 -17.001 50
    endloop
  endfacet
  facet normal -0.0980184 0.995185 0
    outer loop
      vertex -48.52 -17.03 50
      vertex -48.2254 -17.001 45
      vertex -48.52 -17.03 45
    endloop
  endfacet
  facet normal 0.995185 0.0980184 0
    outer loop
      vertex -50.001 -15.8146 50
      vertex -50.03 -15.52 45
      vertex -50.03 -15.52 50
    endloop
  endfacet
  facet normal 0.995185 0.0980184 0
    outer loop
      vertex -50.03 -15.52 45
      vertex -50.001 -15.8146 50
      vertex -50.001 -15.8146 45
    endloop
  endfacet
  facet normal 0.773008 0.634396 0
    outer loop
      vertex -49.5877 -16.5877 50
      vertex -49.7755 -16.3589 45
      vertex -49.7755 -16.3589 50
    endloop
  endfacet
  facet normal 0.773008 0.634396 0
    outer loop
      vertex -49.7755 -16.3589 45
      vertex -49.5877 -16.5877 50
      vertex -49.5877 -16.5877 45
    endloop
  endfacet
  facet normal 0.471394 0.881923 -3.36427e-07
    outer loop
      vertex -49.0979 -16.9151 45
      vertex -49.3589 -16.7755 50
      vertex -49.0979 -16.9151 50
    endloop
  endfacet
  facet normal 0.471399 0.88192 0
    outer loop
      vertex -49.3589 -16.7755 50
      vertex -49.0979 -16.9151 45
      vertex -49.3589 -16.7755 45
    endloop
  endfacet
  facet normal 0.0980184 0.995185 -0
    outer loop
      vertex -48.52 -17.03 45
      vertex -48.8146 -17.001 50
      vertex -48.52 -17.03 50
    endloop
  endfacet
  facet normal 0.0980184 0.995185 0
    outer loop
      vertex -48.8146 -17.001 50
      vertex -48.52 -17.03 45
      vertex -48.8146 -17.001 45
    endloop
  endfacet
  facet normal 0.634393 0.773011 -0
    outer loop
      vertex -49.3589 -16.7755 45
      vertex -49.5877 -16.5877 50
      vertex -49.3589 -16.7755 50
    endloop
  endfacet
  facet normal 0.634393 0.773011 0
    outer loop
      vertex -49.5877 -16.5877 50
      vertex -49.3589 -16.7755 45
      vertex -49.5877 -16.5877 45
    endloop
  endfacet
  facet normal -0.995185 0.0980184 0
    outer loop
      vertex -47.039 -15.8146 45
      vertex -47.01 -15.52 50
      vertex -47.01 -15.52 45
    endloop
  endfacet
  facet normal -0.995185 0.0980184 0
    outer loop
      vertex -47.01 -15.52 50
      vertex -47.039 -15.8146 45
      vertex -47.039 -15.8146 50
    endloop
  endfacet
  facet normal -0.471397 -0.881921 0
    outer loop
      vertex -47.9421 -14.1249 45
      vertex -47.6811 -14.2645 50
      vertex -47.9421 -14.1249 50
    endloop
  endfacet
  facet normal -0.471397 -0.881921 -0
    outer loop
      vertex -47.6811 -14.2645 50
      vertex -47.9421 -14.1249 45
      vertex -47.6811 -14.2645 45
    endloop
  endfacet
  facet normal -0.881923 -0.471394 0
    outer loop
      vertex -47.1249 -14.9421 45
      vertex -47.2645 -14.6811 50
      vertex -47.2645 -14.6811 45
    endloop
  endfacet
  facet normal -0.881923 -0.471394 0
    outer loop
      vertex -47.2645 -14.6811 50
      vertex -47.1249 -14.9421 45
      vertex -47.1249 -14.9421 50
    endloop
  endfacet
  facet normal -0.956938 -0.290291 0
    outer loop
      vertex -47.039 -15.2254 45
      vertex -47.1249 -14.9421 50
      vertex -47.1249 -14.9421 45
    endloop
  endfacet
  facet normal -0.956938 -0.290291 0
    outer loop
      vertex -47.1249 -14.9421 50
      vertex -47.039 -15.2254 45
      vertex -47.039 -15.2254 50
    endloop
  endfacet
  facet normal -0.634399 -0.773006 0
    outer loop
      vertex -47.6811 -14.2645 45
      vertex -47.4523 -14.4523 50
      vertex -47.6811 -14.2645 50
    endloop
  endfacet
  facet normal -0.634399 -0.773006 -0
    outer loop
      vertex -47.4523 -14.4523 50
      vertex -47.6811 -14.2645 45
      vertex -47.4523 -14.4523 45
    endloop
  endfacet
  facet normal 0.0980184 -0.995185 0
    outer loop
      vertex -48.8146 -14.039 45
      vertex -48.52 -14.01 50
      vertex -48.8146 -14.039 50
    endloop
  endfacet
  facet normal 0.0980184 -0.995185 0
    outer loop
      vertex -48.52 -14.01 50
      vertex -48.8146 -14.039 45
      vertex -48.52 -14.01 45
    endloop
  endfacet
  facet normal 0.634393 -0.773011 0
    outer loop
      vertex -49.5877 -14.4523 45
      vertex -49.3589 -14.2645 50
      vertex -49.5877 -14.4523 50
    endloop
  endfacet
  facet normal 0.634393 -0.773011 0
    outer loop
      vertex -49.3589 -14.2645 50
      vertex -49.5877 -14.4523 45
      vertex -49.3589 -14.2645 45
    endloop
  endfacet
  facet normal 0.995185 -0.0980184 0
    outer loop
      vertex -50.03 -15.52 50
      vertex -50.001 -15.2254 45
      vertex -50.001 -15.2254 50
    endloop
  endfacet
  facet normal 0.995185 -0.0980184 0
    outer loop
      vertex -50.001 -15.2254 45
      vertex -50.03 -15.52 50
      vertex -50.03 -15.52 45
    endloop
  endfacet
  facet normal -0.956938 0.290292 0
    outer loop
      vertex -47.1249 -16.0979 45
      vertex -47.039 -15.8146 50
      vertex -47.039 -15.8146 45
    endloop
  endfacet
  facet normal -0.956938 0.290292 0
    outer loop
      vertex -47.039 -15.8146 50
      vertex -47.1249 -16.0979 45
      vertex -47.1249 -16.0979 50
    endloop
  endfacet
  facet normal -0.290283 0.956941 -3.65044e-07
    outer loop
      vertex -47.9421 -16.9151 45
      vertex -48.2254 -17.001 50
      vertex -47.9421 -16.9151 50
    endloop
  endfacet
  facet normal -0.290277 0.956943 0
    outer loop
      vertex -48.2254 -17.001 50
      vertex -47.9421 -16.9151 45
      vertex -48.2254 -17.001 45
    endloop
  endfacet
  facet normal -0.0980184 -0.995185 0
    outer loop
      vertex -48.52 -14.01 45
      vertex -48.2254 -14.039 50
      vertex -48.52 -14.01 50
    endloop
  endfacet
  facet normal -0.0980184 -0.995185 -0
    outer loop
      vertex -48.2254 -14.039 50
      vertex -48.52 -14.01 45
      vertex -48.2254 -14.039 45
    endloop
  endfacet
  facet normal -0.290283 -0.956941 0
    outer loop
      vertex -48.2254 -14.039 45
      vertex -47.9421 -14.1249 50
      vertex -48.2254 -14.039 50
    endloop
  endfacet
  facet normal -0.290283 -0.956941 -0
    outer loop
      vertex -47.9421 -14.1249 50
      vertex -48.2254 -14.039 45
      vertex -47.9421 -14.1249 45
    endloop
  endfacet
  facet normal -0.773007 -0.634398 0
    outer loop
      vertex -47.2645 -14.6811 45
      vertex -47.4523 -14.4523 50
      vertex -47.4523 -14.4523 45
    endloop
  endfacet
  facet normal -0.773007 -0.634398 0
    outer loop
      vertex -47.4523 -14.4523 50
      vertex -47.2645 -14.6811 45
      vertex -47.2645 -14.6811 50
    endloop
  endfacet
  facet normal 0.471397 -0.881921 0
    outer loop
      vertex -49.3589 -14.2645 45
      vertex -49.0979 -14.1249 50
      vertex -49.3589 -14.2645 50
    endloop
  endfacet
  facet normal 0.471397 -0.881921 0
    outer loop
      vertex -49.0979 -14.1249 50
      vertex -49.3589 -14.2645 45
      vertex -49.0979 -14.1249 45
    endloop
  endfacet
  facet normal 0.956942 -0.290279 0
    outer loop
      vertex -50.001 -15.2254 50
      vertex -49.9151 -14.9421 45
      vertex -49.9151 -14.9421 50
    endloop
  endfacet
  facet normal 0.956942 -0.290279 0
    outer loop
      vertex -49.9151 -14.9421 45
      vertex -50.001 -15.2254 50
      vertex -50.001 -15.2254 45
    endloop
  endfacet
  facet normal 0.773007 -0.634398 0
    outer loop
      vertex -49.7755 -14.6811 50
      vertex -49.5877 -14.4523 45
      vertex -49.5877 -14.4523 50
    endloop
  endfacet
  facet normal 0.773007 -0.634398 0
    outer loop
      vertex -49.5877 -14.4523 45
      vertex -49.7755 -14.6811 50
      vertex -49.7755 -14.6811 45
    endloop
  endfacet
  facet normal -0.471397 0.881921 0
    outer loop
      vertex -47.6811 14.2645 45
      vertex -47.9421 14.1249 50
      vertex -47.6811 14.2645 50
    endloop
  endfacet
  facet normal -0.471397 0.881921 0
    outer loop
      vertex -47.9421 14.1249 50
      vertex -47.6811 14.2645 45
      vertex -47.9421 14.1249 45
    endloop
  endfacet
  facet normal 0.956942 0.290279 0
    outer loop
      vertex -49.9151 14.9421 50
      vertex -50.001 15.2254 45
      vertex -50.001 15.2254 50
    endloop
  endfacet
  facet normal 0.956942 0.290279 0
    outer loop
      vertex -50.001 15.2254 45
      vertex -49.9151 14.9421 50
      vertex -49.9151 14.9421 45
    endloop
  endfacet
  facet normal -0.995185 -0.0980184 0
    outer loop
      vertex -47.01 15.52 45
      vertex -47.039 15.8146 50
      vertex -47.039 15.8146 45
    endloop
  endfacet
  facet normal -0.995185 -0.0980184 0
    outer loop
      vertex -47.039 15.8146 50
      vertex -47.01 15.52 45
      vertex -47.01 15.52 50
    endloop
  endfacet
  facet normal 0.290281 -0.956941 0
    outer loop
      vertex -49.0979 16.9151 45
      vertex -48.8146 17.001 50
      vertex -49.0979 16.9151 50
    endloop
  endfacet
  facet normal 0.290281 -0.956941 0
    outer loop
      vertex -48.8146 17.001 50
      vertex -49.0979 16.9151 45
      vertex -48.8146 17.001 45
    endloop
  endfacet
  facet normal 0.290287 0.95694 -0
    outer loop
      vertex -48.8146 14.039 45
      vertex -49.0979 14.1249 50
      vertex -48.8146 14.039 50
    endloop
  endfacet
  facet normal 0.290287 0.95694 0
    outer loop
      vertex -49.0979 14.1249 50
      vertex -48.8146 14.039 45
      vertex -49.0979 14.1249 45
    endloop
  endfacet
  facet normal 0.881923 0.471394 0
    outer loop
      vertex -49.7755 14.6811 50
      vertex -49.9151 14.9421 45
      vertex -49.9151 14.9421 50
    endloop
  endfacet
  facet normal 0.881923 0.471394 0
    outer loop
      vertex -49.9151 14.9421 45
      vertex -49.7755 14.6811 50
      vertex -49.7755 14.6811 45
    endloop
  endfacet
  facet normal 0.881923 -0.471394 0
    outer loop
      vertex -49.9151 16.0979 50
      vertex -49.7755 16.3589 45
      vertex -49.7755 16.3589 50
    endloop
  endfacet
  facet normal 0.881923 -0.471394 0
    outer loop
      vertex -49.7755 16.3589 45
      vertex -49.9151 16.0979 50
      vertex -49.9151 16.0979 45
    endloop
  endfacet
  facet normal -0.881923 0.471394 0
    outer loop
      vertex -47.2645 14.6811 45
      vertex -47.1249 14.9421 50
      vertex -47.1249 14.9421 45
    endloop
  endfacet
  facet normal -0.881923 0.471394 0
    outer loop
      vertex -47.1249 14.9421 50
      vertex -47.2645 14.6811 45
      vertex -47.2645 14.6811 50
    endloop
  endfacet
  facet normal -0.773007 0.634398 0
    outer loop
      vertex -47.4523 14.4523 45
      vertex -47.2645 14.6811 50
      vertex -47.2645 14.6811 45
    endloop
  endfacet
  facet normal -0.773007 0.634398 0
    outer loop
      vertex -47.2645 14.6811 50
      vertex -47.4523 14.4523 45
      vertex -47.4523 14.4523 50
    endloop
  endfacet
  facet normal -0.634399 0.773006 0
    outer loop
      vertex -47.4523 14.4523 45
      vertex -47.6811 14.2645 50
      vertex -47.4523 14.4523 50
    endloop
  endfacet
  facet normal -0.634399 0.773006 0
    outer loop
      vertex -47.6811 14.2645 50
      vertex -47.4523 14.4523 45
      vertex -47.6811 14.2645 45
    endloop
  endfacet
  facet normal -0.0980184 0.995185 0
    outer loop
      vertex -48.2254 14.039 45
      vertex -48.52 14.01 50
      vertex -48.2254 14.039 50
    endloop
  endfacet
  facet normal -0.0980184 0.995185 0
    outer loop
      vertex -48.52 14.01 50
      vertex -48.2254 14.039 45
      vertex -48.52 14.01 45
    endloop
  endfacet
  facet normal -0.290283 0.956941 0
    outer loop
      vertex -47.9421 14.1249 45
      vertex -48.2254 14.039 50
      vertex -47.9421 14.1249 50
    endloop
  endfacet
  facet normal -0.290283 0.956941 0
    outer loop
      vertex -48.2254 14.039 50
      vertex -47.9421 14.1249 45
      vertex -48.2254 14.039 45
    endloop
  endfacet
  facet normal 0.995185 0.0980184 0
    outer loop
      vertex -50.001 15.2254 50
      vertex -50.03 15.52 45
      vertex -50.03 15.52 50
    endloop
  endfacet
  facet normal 0.995185 0.0980184 0
    outer loop
      vertex -50.03 15.52 45
      vertex -50.001 15.2254 50
      vertex -50.001 15.2254 45
    endloop
  endfacet
  facet normal 0.773007 0.634398 0
    outer loop
      vertex -49.5877 14.4523 50
      vertex -49.7755 14.6811 45
      vertex -49.7755 14.6811 50
    endloop
  endfacet
  facet normal 0.773007 0.634398 0
    outer loop
      vertex -49.7755 14.6811 45
      vertex -49.5877 14.4523 50
      vertex -49.5877 14.4523 45
    endloop
  endfacet
  facet normal 0.471397 0.881921 -0
    outer loop
      vertex -49.0979 14.1249 45
      vertex -49.3589 14.2645 50
      vertex -49.0979 14.1249 50
    endloop
  endfacet
  facet normal 0.471397 0.881921 0
    outer loop
      vertex -49.3589 14.2645 50
      vertex -49.0979 14.1249 45
      vertex -49.3589 14.2645 45
    endloop
  endfacet
  facet normal 0.0980184 0.995185 -0
    outer loop
      vertex -48.52 14.01 45
      vertex -48.8146 14.039 50
      vertex -48.52 14.01 50
    endloop
  endfacet
  facet normal 0.0980184 0.995185 0
    outer loop
      vertex -48.8146 14.039 50
      vertex -48.52 14.01 45
      vertex -48.8146 14.039 45
    endloop
  endfacet
  facet normal 0.634393 0.773011 -0
    outer loop
      vertex -49.3589 14.2645 45
      vertex -49.5877 14.4523 50
      vertex -49.3589 14.2645 50
    endloop
  endfacet
  facet normal 0.634393 0.773011 0
    outer loop
      vertex -49.5877 14.4523 50
      vertex -49.3589 14.2645 45
      vertex -49.5877 14.4523 45
    endloop
  endfacet
  facet normal -0.995185 0.0980184 0
    outer loop
      vertex -47.039 15.2254 45
      vertex -47.01 15.52 50
      vertex -47.01 15.52 45
    endloop
  endfacet
  facet normal -0.995185 0.0980184 0
    outer loop
      vertex -47.01 15.52 50
      vertex -47.039 15.2254 45
      vertex -47.039 15.2254 50
    endloop
  endfacet
  facet normal -0.471399 -0.88192 0
    outer loop
      vertex -47.9421 16.9151 45
      vertex -47.6811 16.7755 50
      vertex -47.9421 16.9151 50
    endloop
  endfacet
  facet normal -0.471399 -0.88192 -0
    outer loop
      vertex -47.6811 16.7755 50
      vertex -47.9421 16.9151 45
      vertex -47.6811 16.7755 45
    endloop
  endfacet
  facet normal -0.881923 -0.471394 0
    outer loop
      vertex -47.1249 16.0979 45
      vertex -47.2645 16.3589 50
      vertex -47.2645 16.3589 45
    endloop
  endfacet
  facet normal -0.881923 -0.471394 0
    outer loop
      vertex -47.2645 16.3589 50
      vertex -47.1249 16.0979 45
      vertex -47.1249 16.0979 50
    endloop
  endfacet
  facet normal -0.956938 -0.290292 0
    outer loop
      vertex -47.039 15.8146 45
      vertex -47.1249 16.0979 50
      vertex -47.1249 16.0979 45
    endloop
  endfacet
  facet normal -0.956938 -0.290292 0
    outer loop
      vertex -47.1249 16.0979 50
      vertex -47.039 15.8146 45
      vertex -47.039 15.8146 50
    endloop
  endfacet
  facet normal -0.634399 -0.773006 0
    outer loop
      vertex -47.6811 16.7755 45
      vertex -47.4523 16.5877 50
      vertex -47.6811 16.7755 50
    endloop
  endfacet
  facet normal -0.634399 -0.773006 -0
    outer loop
      vertex -47.4523 16.5877 50
      vertex -47.6811 16.7755 45
      vertex -47.4523 16.5877 45
    endloop
  endfacet
  facet normal 0.0980184 -0.995185 0
    outer loop
      vertex -48.8146 17.001 45
      vertex -48.52 17.03 50
      vertex -48.8146 17.001 50
    endloop
  endfacet
  facet normal 0.0980184 -0.995185 0
    outer loop
      vertex -48.52 17.03 50
      vertex -48.8146 17.001 45
      vertex -48.52 17.03 45
    endloop
  endfacet
  facet normal 0.634393 -0.773011 0
    outer loop
      vertex -49.5877 16.5877 45
      vertex -49.3589 16.7755 50
      vertex -49.5877 16.5877 50
    endloop
  endfacet
  facet normal 0.634393 -0.773011 0
    outer loop
      vertex -49.3589 16.7755 50
      vertex -49.5877 16.5877 45
      vertex -49.3589 16.7755 45
    endloop
  endfacet
  facet normal 0.995185 -0.0980184 0
    outer loop
      vertex -50.03 15.52 50
      vertex -50.001 15.8146 45
      vertex -50.001 15.8146 50
    endloop
  endfacet
  facet normal 0.995185 -0.0980184 0
    outer loop
      vertex -50.001 15.8146 45
      vertex -50.03 15.52 50
      vertex -50.03 15.52 45
    endloop
  endfacet
  facet normal -0.956938 0.290291 0
    outer loop
      vertex -47.1249 14.9421 45
      vertex -47.039 15.2254 50
      vertex -47.039 15.2254 45
    endloop
  endfacet
  facet normal -0.956938 0.290291 0
    outer loop
      vertex -47.039 15.2254 50
      vertex -47.1249 14.9421 45
      vertex -47.1249 14.9421 50
    endloop
  endfacet
  facet normal -0.0980184 -0.995185 0
    outer loop
      vertex -48.52 17.03 45
      vertex -48.2254 17.001 50
      vertex -48.52 17.03 50
    endloop
  endfacet
  facet normal -0.0980184 -0.995185 -0
    outer loop
      vertex -48.2254 17.001 50
      vertex -48.52 17.03 45
      vertex -48.2254 17.001 45
    endloop
  endfacet
  facet normal -0.290277 -0.956943 0
    outer loop
      vertex -48.2254 17.001 45
      vertex -47.9421 16.9151 50
      vertex -48.2254 17.001 50
    endloop
  endfacet
  facet normal -0.290277 -0.956943 -0
    outer loop
      vertex -47.9421 16.9151 50
      vertex -48.2254 17.001 45
      vertex -47.9421 16.9151 45
    endloop
  endfacet
  facet normal -0.773008 -0.634396 0
    outer loop
      vertex -47.2645 16.3589 45
      vertex -47.4523 16.5877 50
      vertex -47.4523 16.5877 45
    endloop
  endfacet
  facet normal -0.773008 -0.634396 0
    outer loop
      vertex -47.4523 16.5877 50
      vertex -47.2645 16.3589 45
      vertex -47.2645 16.3589 50
    endloop
  endfacet
  facet normal 0.471399 -0.88192 0
    outer loop
      vertex -49.3589 16.7755 45
      vertex -49.0979 16.9151 50
      vertex -49.3589 16.7755 50
    endloop
  endfacet
  facet normal 0.471399 -0.88192 0
    outer loop
      vertex -49.0979 16.9151 50
      vertex -49.3589 16.7755 45
      vertex -49.0979 16.9151 45
    endloop
  endfacet
  facet normal 0.956942 -0.29028 0
    outer loop
      vertex -50.001 15.8146 50
      vertex -49.9151 16.0979 45
      vertex -49.9151 16.0979 50
    endloop
  endfacet
  facet normal 0.956942 -0.29028 0
    outer loop
      vertex -49.9151 16.0979 45
      vertex -50.001 15.8146 50
      vertex -50.001 15.8146 45
    endloop
  endfacet
  facet normal 0.773008 -0.634396 0
    outer loop
      vertex -49.7755 16.3589 50
      vertex -49.5877 16.5877 45
      vertex -49.5877 16.5877 50
    endloop
  endfacet
  facet normal 0.773008 -0.634396 0
    outer loop
      vertex -49.5877 16.5877 45
      vertex -49.7755 16.3589 50
      vertex -49.7755 16.3589 45
    endloop
  endfacet
  facet normal 1.92382e-07 1 -0
    outer loop
      vertex -26 -9 45
      vertex -30.9572 -9 60.5
      vertex -26 -9 60.5
    endloop
  endfacet
  facet normal 1.92382e-07 1 0
    outer loop
      vertex -30.9572 -9 60.5
      vertex -26 -9 45
      vertex -30.9572 -9 45
    endloop
  endfacet
  facet normal 0 0 1
    outer loop
      vertex -28.8451 -20.0216 60.5
      vertex -26 -9 60.5
      vertex -28.8451 -11.9784 60.5
    endloop
  endfacet
  facet normal 0 0 1
    outer loop
      vertex -26 -9 60.5
      vertex -28.8451 -20.0216 60.5
      vertex -28.75 -20.5 60.5
    endloop
  endfacet
  facet normal -0 0 1
    outer loop
      vertex -29.1161 -12.3839 60.5
      vertex -28.8451 -20.0216 60.5
      vertex -28.8451 -11.9784 60.5
    endloop
  endfacet
  facet normal 0 0 1
    outer loop
      vertex -29.1161 -12.3839 60.5
      vertex -29.1161 -19.6161 60.5
      vertex -28.8451 -20.0216 60.5
    endloop
  endfacet
  facet normal -0 0 1
    outer loop
      vertex -29.5216 -12.6549 60.5
      vertex -29.1161 -19.6161 60.5
      vertex -29.1161 -12.3839 60.5
    endloop
  endfacet
  facet normal 0 0 1
    outer loop
      vertex -29.5216 -12.6549 60.5
      vertex -29.5216 -19.3451 60.5
      vertex -29.1161 -19.6161 60.5
    endloop
  endfacet
  facet normal -0 0 1
    outer loop
      vertex -30 -12.75 60.5
      vertex -29.5216 -19.3451 60.5
      vertex -29.5216 -12.6549 60.5
    endloop
  endfacet
  facet normal 0 0 1
    outer loop
      vertex -30 -12.75 60.5
      vertex -30 -19.25 60.5
      vertex -29.5216 -19.3451 60.5
    endloop
  endfacet
  facet normal 0 0 1
    outer loop
      vertex -30.4784 -12.6549 60.5
      vertex -30 -19.25 60.5
      vertex -30 -12.75 60.5
    endloop
  endfacet
  facet normal 0 0 1
    outer loop
      vertex -30.4784 -12.6549 60.5
      vertex -30.4784 -19.3451 60.5
      vertex -30 -19.25 60.5
    endloop
  endfacet
  facet normal 0 0 1
    outer loop
      vertex -30.8839 -12.3839 60.5
      vertex -30.4784 -19.3451 60.5
      vertex -30.4784 -12.6549 60.5
    endloop
  endfacet
  facet normal 0 0 1
    outer loop
      vertex -30.8839 -12.3839 60.5
      vertex -30.8839 -19.6161 60.5
      vertex -30.4784 -19.3451 60.5
    endloop
  endfacet
  facet normal 0 0 1
    outer loop
      vertex -31.1548 -11.9784 60.5
      vertex -30.8839 -19.6161 60.5
      vertex -30.8839 -12.3839 60.5
    endloop
  endfacet
  facet normal 0 0 1
    outer loop
      vertex -31.1548 -11.9784 60.5
      vertex -31.1548 -20.0216 60.5
      vertex -30.8839 -19.6161 60.5
    endloop
  endfacet
  facet normal 0 0 1
    outer loop
      vertex -34 -9.15151 60.5
      vertex -31.1548 -11.9784 60.5
      vertex -31.25 -11.5 60.5
    endloop
  endfacet
  facet normal 0 0 1
    outer loop
      vertex -31.1548 -11.9784 60.5
      vertex -34 -9.15151 60.5
      vertex -31.1548 -20.0216 60.5
    endloop
  endfacet
  facet normal 0 0 1
    outer loop
      vertex -28.8451 -11.9784 60.5
      vertex -26 -9 60.5
      vertex -28.75 -11.5 60.5
    endloop
  endfacet
  facet normal 0 0 1
    outer loop
      vertex -26 -9 60.5
      vertex -28.8451 -11.0216 60.5
      vertex -28.75 -11.5 60.5
    endloop
  endfacet
  facet normal 0 0 1
    outer loop
      vertex -26 -9 60.5
      vertex -29.1161 -10.6161 60.5
      vertex -28.8451 -11.0216 60.5
    endloop
  endfacet
  facet normal 0 0 1
    outer loop
      vertex -26 -9 60.5
      vertex -29.5216 -10.3452 60.5
      vertex -29.1161 -10.6161 60.5
    endloop
  endfacet
  facet normal 0 0 1
    outer loop
      vertex -30.9572 -9 60.5
      vertex -29.5216 -10.3452 60.5
      vertex -26 -9 60.5
    endloop
  endfacet
  facet normal 0 0 1
    outer loop
      vertex -29.5216 -10.3452 60.5
      vertex -30.9572 -9 60.5
      vertex -30 -10.25 60.5
    endloop
  endfacet
  facet normal 0 0 1
    outer loop
      vertex -30 -10.25 60.5
      vertex -30.9572 -9 60.5
      vertex -30.4784 -10.3452 60.5
    endloop
  endfacet
  facet normal -0 0 1
    outer loop
      vertex -31.1954 -9.07226 60.5
      vertex -30.4784 -10.3452 60.5
      vertex -30.9572 -9 60.5
    endloop
  endfacet
  facet normal 0 0 1
    outer loop
      vertex -30.4784 -10.3452 60.5
      vertex -31.1954 -9.07226 60.5
      vertex -30.8839 -10.6161 60.5
    endloop
  endfacet
  facet normal -0 0 1
    outer loop
      vertex -33 -9.25 60.5
      vertex -30.8839 -10.6161 60.5
      vertex -31.1954 -9.07226 60.5
    endloop
  endfacet
  facet normal 0 0 1
    outer loop
      vertex -30.8839 -10.6161 60.5
      vertex -33 -9.25 60.5
      vertex -31.1548 -11.0216 60.5
    endloop
  endfacet
  facet normal 0 0 1
    outer loop
      vertex -34 -9.15151 60.5
      vertex -31.25 -11.5 60.5
      vertex -33 -9.25 60.5
    endloop
  endfacet
  facet normal 0 0 1
    outer loop
      vertex -31.1548 -11.0216 60.5
      vertex -33 -9.25 60.5
      vertex -31.25 -11.5 60.5
    endloop
  endfacet
  facet normal 0 0 1
    outer loop
      vertex -26 -9 60.5
      vertex -28.75 -20.5 60.5
      vertex -26 -24 60.5
    endloop
  endfacet
  facet normal -0 0 1
    outer loop
      vertex -28.8451 -20.9784 60.5
      vertex -26 -24 60.5
      vertex -28.75 -20.5 60.5
    endloop
  endfacet
  facet normal -0 0 1
    outer loop
      vertex -29.1161 -21.3839 60.5
      vertex -26 -24 60.5
      vertex -28.8451 -20.9784 60.5
    endloop
  endfacet
  facet normal -0 0 1
    outer loop
      vertex -29.5216 -21.6549 60.5
      vertex -26 -24 60.5
      vertex -29.1161 -21.3839 60.5
    endloop
  endfacet
  facet normal -0 0 1
    outer loop
      vertex -30 -21.75 60.5
      vertex -26 -24 60.5
      vertex -29.5216 -21.6549 60.5
    endloop
  endfacet
  facet normal 0 0 1
    outer loop
      vertex -34 -24 60.5
      vertex -30 -21.75 60.5
      vertex -30.4784 -21.6549 60.5
    endloop
  endfacet
  facet normal 0 0 1
    outer loop
      vertex -34 -24 60.5
      vertex -31.1548 -20.0216 60.5
      vertex -34 -9.15151 60.5
    endloop
  endfacet
  facet normal 0 0 1
    outer loop
      vertex -31.1548 -20.0216 60.5
      vertex -34 -24 60.5
      vertex -31.25 -20.5 60.5
    endloop
  endfacet
  facet normal 0 0 1
    outer loop
      vertex -30 -21.75 60.5
      vertex -34 -24 60.5
      vertex -26 -24 60.5
    endloop
  endfacet
  facet normal 0 0 1
    outer loop
      vertex -30.8839 -21.3839 60.5
      vertex -34 -24 60.5
      vertex -30.4784 -21.6549 60.5
    endloop
  endfacet
  facet normal 0 0 1
    outer loop
      vertex -31.1548 -20.9784 60.5
      vertex -34 -24 60.5
      vertex -30.8839 -21.3839 60.5
    endloop
  endfacet
  facet normal 0 0 1
    outer loop
      vertex -31.25 -20.5 60.5
      vertex -34 -24 60.5
      vertex -31.1548 -20.9784 60.5
    endloop
  endfacet
  facet normal 0 -1 0
    outer loop
      vertex -34 -24 45
      vertex -26 -24 60.5
      vertex -34 -24 60.5
    endloop
  endfacet
  facet normal 0 -1 -0
    outer loop
      vertex -26 -24 60.5
      vertex -34 -24 45
      vertex -26 -24 45
    endloop
  endfacet
  facet normal 0 0 -1
    outer loop
      vertex -47.1249 -14.9421 45
      vertex -44 -11 45
      vertex -47.039 -15.2254 45
    endloop
  endfacet
  facet normal 0 0 -1
    outer loop
      vertex -44 -11 45
      vertex -47.039 15.2254 45
      vertex -47.01 15.52 45
    endloop
  endfacet
  facet normal 0 0 -1
    outer loop
      vertex -47.2645 -14.6811 45
      vertex -44 -11 45
      vertex -47.1249 -14.9421 45
    endloop
  endfacet
  facet normal 0 0 -1
    outer loop
      vertex -44 -11 45
      vertex -47.1249 14.9421 45
      vertex -47.039 15.2254 45
    endloop
  endfacet
  facet normal 0 0 -1
    outer loop
      vertex -47.4523 -14.4523 45
      vertex -44 -11 45
      vertex -47.2645 -14.6811 45
    endloop
  endfacet
  facet normal 0 0 -1
    outer loop
      vertex -44 -11 45
      vertex -47.2645 14.6811 45
      vertex -47.1249 14.9421 45
    endloop
  endfacet
  facet normal 0 0 -1
    outer loop
      vertex -47.6811 -14.2645 45
      vertex -44 -11 45
      vertex -47.4523 -14.4523 45
    endloop
  endfacet
  facet normal 0 0 -1
    outer loop
      vertex -44 -11 45
      vertex -47.4523 14.4523 45
      vertex -47.2645 14.6811 45
    endloop
  endfacet
  facet normal 0 0 -1
    outer loop
      vertex -47.9421 -14.1249 45
      vertex -44 -11 45
      vertex -47.6811 -14.2645 45
    endloop
  endfacet
  facet normal 0 0 -1
    outer loop
      vertex -44 -11 45
      vertex -47.6811 14.2645 45
      vertex -47.4523 14.4523 45
    endloop
  endfacet
  facet normal 0 0 -1
    outer loop
      vertex -48.2254 -14.039 45
      vertex -44 -11 45
      vertex -47.9421 -14.1249 45
    endloop
  endfacet
  facet normal 0 0 -1
    outer loop
      vertex -44 -11 45
      vertex -47.9421 14.1249 45
      vertex -47.6811 14.2645 45
    endloop
  endfacet
  facet normal -0 0 -1
    outer loop
      vertex -44 -11 45
      vertex -48.2254 -14.039 45
      vertex -52 -11 45
    endloop
  endfacet
  facet normal 0 -0 -1
    outer loop
      vertex -48.52 14.01 45
      vertex -44 -11 45
      vertex -52 -11 45
    endloop
  endfacet
  facet normal 0 0 -1
    outer loop
      vertex -52 -11 45
      vertex -48.2254 -14.039 45
      vertex -48.52 -14.01 45
    endloop
  endfacet
  facet normal 0 0 -1
    outer loop
      vertex -44 -11 45
      vertex -48.2254 14.039 45
      vertex -47.9421 14.1249 45
    endloop
  endfacet
  facet normal 0 0 -1
    outer loop
      vertex -52 -11 45
      vertex -48.52 -14.01 45
      vertex -48.8146 -14.039 45
    endloop
  endfacet
  facet normal 0 0 -1
    outer loop
      vertex -44 -11 45
      vertex -48.52 14.01 45
      vertex -48.2254 14.039 45
    endloop
  endfacet
  facet normal 0 0 -1
    outer loop
      vertex -52 -11 45
      vertex -48.8146 -14.039 45
      vertex -49.0979 -14.1249 45
    endloop
  endfacet
  facet normal -0 0 -1
    outer loop
      vertex -48.52 14.01 45
      vertex -52 -11 45
      vertex -48.8146 14.039 45
    endloop
  endfacet
  facet normal 0 0 -1
    outer loop
      vertex -52 -11 45
      vertex -49.0979 -14.1249 45
      vertex -49.3589 -14.2645 45
    endloop
  endfacet
  facet normal -0 0 -1
    outer loop
      vertex -48.8146 14.039 45
      vertex -52 -11 45
      vertex -49.0979 14.1249 45
    endloop
  endfacet
  facet normal 0 0 -1
    outer loop
      vertex -52 -11 45
      vertex -49.3589 -14.2645 45
      vertex -49.5877 -14.4523 45
    endloop
  endfacet
  facet normal -0 0 -1
    outer loop
      vertex -49.0979 14.1249 45
      vertex -52 -11 45
      vertex -49.3589 14.2645 45
    endloop
  endfacet
  facet normal 0 0 -1
    outer loop
      vertex -52 -11 45
      vertex -49.5877 -14.4523 45
      vertex -49.7755 -14.6811 45
    endloop
  endfacet
  facet normal -0 0 -1
    outer loop
      vertex -49.3589 14.2645 45
      vertex -52 -11 45
      vertex -49.5877 14.4523 45
    endloop
  endfacet
  facet normal 0 0 -1
    outer loop
      vertex -52 -11 45
      vertex -49.7755 -14.6811 45
      vertex -49.9151 -14.9421 45
    endloop
  endfacet
  facet normal -0 0 -1
    outer loop
      vertex -49.5877 14.4523 45
      vertex -52 -11 45
      vertex -49.7755 14.6811 45
    endloop
  endfacet
  facet normal 0 0 -1
    outer loop
      vertex -52 -11 45
      vertex -49.9151 -14.9421 45
      vertex -50.001 -15.2254 45
    endloop
  endfacet
  facet normal -0 0 -1
    outer loop
      vertex -49.7755 14.6811 45
      vertex -52 -11 45
      vertex -49.9151 14.9421 45
    endloop
  endfacet
  facet normal 0 0 -1
    outer loop
      vertex -52 -11 45
      vertex -50.001 -15.2254 45
      vertex -50.03 -15.52 45
    endloop
  endfacet
  facet normal 0 0 -1
    outer loop
      vertex -52 19 45
      vertex -49.9151 14.9421 45
      vertex -52 -11 45
    endloop
  endfacet
  facet normal 0 0 -1
    outer loop
      vertex -34 -24 45
      vertex -44 -11 45
      vertex -34 -11 45
    endloop
  endfacet
  facet normal 0 0 -1
    outer loop
      vertex -47.039 -15.2254 45
      vertex -44 -11 45
      vertex -47.01 -15.52 45
    endloop
  endfacet
  facet normal 0 0 -1
    outer loop
      vertex -47.039 -15.8146 45
      vertex -44 -11 45
      vertex -34 -24 45
    endloop
  endfacet
  facet normal 0 0 -1
    outer loop
      vertex -44 -11 45
      vertex -47.039 -15.8146 45
      vertex -47.01 -15.52 45
    endloop
  endfacet
  facet normal 0 0 -1
    outer loop
      vertex -34 -24 45
      vertex -47.1249 -16.0979 45
      vertex -47.039 -15.8146 45
    endloop
  endfacet
  facet normal 0 0 -1
    outer loop
      vertex -34 -24 45
      vertex -47.2645 -16.3589 45
      vertex -47.1249 -16.0979 45
    endloop
  endfacet
  facet normal 0 0 -1
    outer loop
      vertex -34 -24 45
      vertex -47.4523 -16.5877 45
      vertex -47.2645 -16.3589 45
    endloop
  endfacet
  facet normal 0 0 -1
    outer loop
      vertex -34 -24 45
      vertex -47.6811 -16.7755 45
      vertex -47.4523 -16.5877 45
    endloop
  endfacet
  facet normal 0 0 -1
    outer loop
      vertex -52 -24 45
      vertex -47.6811 -16.7755 45
      vertex -34 -24 45
    endloop
  endfacet
  facet normal 0 0 -1
    outer loop
      vertex -47.6811 -16.7755 45
      vertex -52 -24 45
      vertex -47.9421 -16.9151 45
    endloop
  endfacet
  facet normal 0 0 -1
    outer loop
      vertex -47.9421 -16.9151 45
      vertex -52 -24 45
      vertex -48.2254 -17.001 45
    endloop
  endfacet
  facet normal 0 0 -1
    outer loop
      vertex -48.2254 -17.001 45
      vertex -52 -24 45
      vertex -48.52 -17.03 45
    endloop
  endfacet
  facet normal -0 0 -1
    outer loop
      vertex -48.52 -17.03 45
      vertex -52 -24 45
      vertex -48.8146 -17.001 45
    endloop
  endfacet
  facet normal 0 0 -1
    outer loop
      vertex -50.001 -15.8146 45
      vertex -52 -11 45
      vertex -50.03 -15.52 45
    endloop
  endfacet
  facet normal 0 0 -1
    outer loop
      vertex -52 -11 45
      vertex -50.001 -15.8146 45
      vertex -52 -24 45
    endloop
  endfacet
  facet normal -0 0 -1
    outer loop
      vertex -49.9151 -16.0979 45
      vertex -52 -24 45
      vertex -50.001 -15.8146 45
    endloop
  endfacet
  facet normal -0 0 -1
    outer loop
      vertex -49.7755 -16.3589 45
      vertex -52 -24 45
      vertex -49.9151 -16.0979 45
    endloop
  endfacet
  facet normal -0 0 -1
    outer loop
      vertex -49.5877 -16.5877 45
      vertex -52 -24 45
      vertex -49.7755 -16.3589 45
    endloop
  endfacet
  facet normal -0 0 -1
    outer loop
      vertex -49.3589 -16.7755 45
      vertex -52 -24 45
      vertex -49.5877 -16.5877 45
    endloop
  endfacet
  facet normal -0 0 -1
    outer loop
      vertex -49.0979 -16.9151 45
      vertex -52 -24 45
      vertex -49.3589 -16.7755 45
    endloop
  endfacet
  facet normal -0 0 -1
    outer loop
      vertex -48.8146 -17.001 45
      vertex -52 -24 45
      vertex -49.0979 -16.9151 45
    endloop
  endfacet
  facet normal 0 0 -1
    outer loop
      vertex -28.8451 -11.9784 45
      vertex -26 -9 45
      vertex -28.8451 -20.0216 45
    endloop
  endfacet
  facet normal 0 0 -1
    outer loop
      vertex -26 -9 45
      vertex -28.8451 -11.9784 45
      vertex -28.75 -11.5 45
    endloop
  endfacet
  facet normal 0 0 -1
    outer loop
      vertex -29.1161 -19.6161 45
      vertex -28.8451 -11.9784 45
      vertex -28.8451 -20.0216 45
    endloop
  endfacet
  facet normal 0 0 -1
    outer loop
      vertex -29.1161 -19.6161 45
      vertex -29.1161 -12.3839 45
      vertex -28.8451 -11.9784 45
    endloop
  endfacet
  facet normal 0 0 -1
    outer loop
      vertex -29.5216 -19.3451 45
      vertex -29.1161 -12.3839 45
      vertex -29.1161 -19.6161 45
    endloop
  endfacet
  facet normal 0 0 -1
    outer loop
      vertex -29.5216 -19.3451 45
      vertex -29.5216 -12.6549 45
      vertex -29.1161 -12.3839 45
    endloop
  endfacet
  facet normal 0 0 -1
    outer loop
      vertex -30 -19.25 45
      vertex -29.5216 -12.6549 45
      vertex -29.5216 -19.3451 45
    endloop
  endfacet
  facet normal 0 0 -1
    outer loop
      vertex -30 -19.25 45
      vertex -30 -12.75 45
      vertex -29.5216 -12.6549 45
    endloop
  endfacet
  facet normal 0 0 -1
    outer loop
      vertex -30.4784 -19.3451 45
      vertex -30 -12.75 45
      vertex -30 -19.25 45
    endloop
  endfacet
  facet normal 0 0 -1
    outer loop
      vertex -30.4784 -19.3451 45
      vertex -30.4784 -12.6549 45
      vertex -30 -12.75 45
    endloop
  endfacet
  facet normal 0 0 -1
    outer loop
      vertex -30.8839 -19.6161 45
      vertex -30.4784 -12.6549 45
      vertex -30.4784 -19.3451 45
    endloop
  endfacet
  facet normal 0 0 -1
    outer loop
      vertex -30.8839 -19.6161 45
      vertex -30.8839 -12.3839 45
      vertex -30.4784 -12.6549 45
    endloop
  endfacet
  facet normal 0 0 -1
    outer loop
      vertex -34 -11 45
      vertex -30.8839 -19.6161 45
      vertex -31.1548 -20.0216 45
    endloop
  endfacet
  facet normal 0 0 -1
    outer loop
      vertex -30.8839 -19.6161 45
      vertex -34 -11 45
      vertex -30.8839 -12.3839 45
    endloop
  endfacet
  facet normal 0 0 -1
    outer loop
      vertex -34 -24 45
      vertex -31.1548 -20.0216 45
      vertex -31.25 -20.5 45
    endloop
  endfacet
  facet normal 0 0 -1
    outer loop
      vertex -30.8839 -12.3839 45
      vertex -34 -11 45
      vertex -31.1548 -11.9784 45
    endloop
  endfacet
  facet normal 0 0 -1
    outer loop
      vertex -28.8451 -20.0216 45
      vertex -26 -24 45
      vertex -28.75 -20.5 45
    endloop
  endfacet
  facet normal 0 0 -1
    outer loop
      vertex -26 -24 45
      vertex -28.8451 -20.9784 45
      vertex -28.75 -20.5 45
    endloop
  endfacet
  facet normal 0 0 -1
    outer loop
      vertex -26 -24 45
      vertex -29.1161 -21.3839 45
      vertex -28.8451 -20.9784 45
    endloop
  endfacet
  facet normal 0 0 -1
    outer loop
      vertex -26 -24 45
      vertex -29.5216 -21.6549 45
      vertex -29.1161 -21.3839 45
    endloop
  endfacet
  facet normal 0 0 -1
    outer loop
      vertex -26 -24 45
      vertex -30 -21.75 45
      vertex -29.5216 -21.6549 45
    endloop
  endfacet
  facet normal 0 0 -1
    outer loop
      vertex -34 -24 45
      vertex -30 -21.75 45
      vertex -26 -24 45
    endloop
  endfacet
  facet normal 0 0 -1
    outer loop
      vertex -31.1548 -11.9784 45
      vertex -34 -11 45
      vertex -31.25 -11.5 45
    endloop
  endfacet
  facet normal -0 0 -1
    outer loop
      vertex -30 -21.75 45
      vertex -34 -24 45
      vertex -30.4784 -21.6549 45
    endloop
  endfacet
  facet normal 0 0 -1
    outer loop
      vertex -34 -24 45
      vertex -30.8839 -21.3839 45
      vertex -30.4784 -21.6549 45
    endloop
  endfacet
  facet normal 0 0 -1
    outer loop
      vertex -34 -24 45
      vertex -31.1548 -20.9784 45
      vertex -30.8839 -21.3839 45
    endloop
  endfacet
  facet normal 0 0 -1
    outer loop
      vertex -34 -24 45
      vertex -31.25 -20.5 45
      vertex -31.1548 -20.9784 45
    endloop
  endfacet
  facet normal -0 0 -1
    outer loop
      vertex -31.1548 -20.0216 45
      vertex -34 -24 45
      vertex -34 -11 45
    endloop
  endfacet
  facet normal 0 0 -1
    outer loop
      vertex -31.25 -11.5 45
      vertex -34 -11 45
      vertex -33 -9.25 45
    endloop
  endfacet
  facet normal -0 0 -1
    outer loop
      vertex -33 -9.25 45
      vertex -34 -11 45
      vertex -34 -9.15151 45
    endloop
  endfacet
  facet normal 0 0 -1
    outer loop
      vertex -26 -24 45
      vertex -28.8451 -20.0216 45
      vertex -26 -9 45
    endloop
  endfacet
  facet normal 0 0 -1
    outer loop
      vertex -28.8451 -11.0216 45
      vertex -26 -9 45
      vertex -28.75 -11.5 45
    endloop
  endfacet
  facet normal 0 0 -1
    outer loop
      vertex -29.1161 -10.6161 45
      vertex -26 -9 45
      vertex -28.8451 -11.0216 45
    endloop
  endfacet
  facet normal 0 0 -1
    outer loop
      vertex -29.5216 -10.3452 45
      vertex -26 -9 45
      vertex -29.1161 -10.6161 45
    endloop
  endfacet
  facet normal 0 0 -1
    outer loop
      vertex -30.9572 -9 45
      vertex -29.5216 -10.3452 45
      vertex -30 -10.25 45
    endloop
  endfacet
  facet normal 0 0 -1
    outer loop
      vertex -30.9572 -9 45
      vertex -30 -10.25 45
      vertex -30.4784 -10.3452 45
    endloop
  endfacet
  facet normal 0 0 -1
    outer loop
      vertex -29.5216 -10.3452 45
      vertex -30.9572 -9 45
      vertex -26 -9 45
    endloop
  endfacet
  facet normal 0 0 -1
    outer loop
      vertex -31.1954 -9.07226 45
      vertex -30.4784 -10.3452 45
      vertex -30.8839 -10.6161 45
    endloop
  endfacet
  facet normal 0 0 -1
    outer loop
      vertex -33 -9.25 45
      vertex -30.8839 -10.6161 45
      vertex -31.1548 -11.0216 45
    endloop
  endfacet
  facet normal 0 0 -1
    outer loop
      vertex -30.4784 -10.3452 45
      vertex -31.1954 -9.07226 45
      vertex -30.9572 -9 45
    endloop
  endfacet
  facet normal 0 0 -1
    outer loop
      vertex -33 -9.25 45
      vertex -31.1548 -11.0216 45
      vertex -31.25 -11.5 45
    endloop
  endfacet
  facet normal 0 0 -1
    outer loop
      vertex -30.8839 -10.6161 45
      vertex -33 -9.25 45
      vertex -31.1954 -9.07226 45
    endloop
  endfacet
  facet normal 0 0 -1
    outer loop
      vertex -44 -11 45
      vertex -47.01 15.52 45
      vertex -44 19 45
    endloop
  endfacet
  facet normal 0 0 -1
    outer loop
      vertex -47.039 15.8146 45
      vertex -44 19 45
      vertex -47.01 15.52 45
    endloop
  endfacet
  facet normal 0 0 -1
    outer loop
      vertex -47.1249 16.0979 45
      vertex -44 19 45
      vertex -47.039 15.8146 45
    endloop
  endfacet
  facet normal 0 0 -1
    outer loop
      vertex -47.2645 16.3589 45
      vertex -44 19 45
      vertex -47.1249 16.0979 45
    endloop
  endfacet
  facet normal 0 0 -1
    outer loop
      vertex -47.4523 16.5877 45
      vertex -44 19 45
      vertex -47.2645 16.3589 45
    endloop
  endfacet
  facet normal 0 0 -1
    outer loop
      vertex -47.6811 16.7755 45
      vertex -44 19 45
      vertex -47.4523 16.5877 45
    endloop
  endfacet
  facet normal 0 0 -1
    outer loop
      vertex -47.9421 16.9151 45
      vertex -44 19 45
      vertex -47.6811 16.7755 45
    endloop
  endfacet
  facet normal 0 0 -1
    outer loop
      vertex -48.2254 17.001 45
      vertex -44 19 45
      vertex -47.9421 16.9151 45
    endloop
  endfacet
  facet normal 0 0 -1
    outer loop
      vertex -48.52 17.03 45
      vertex -44 19 45
      vertex -48.2254 17.001 45
    endloop
  endfacet
  facet normal 0 0 -1
    outer loop
      vertex -52 19 45
      vertex -48.52 17.03 45
      vertex -48.8146 17.001 45
    endloop
  endfacet
  facet normal 0 0 -1
    outer loop
      vertex -52 19 45
      vertex -48.8146 17.001 45
      vertex -49.0979 16.9151 45
    endloop
  endfacet
  facet normal 0 0 -1
    outer loop
      vertex -49.9151 14.9421 45
      vertex -52 19 45
      vertex -50.001 15.2254 45
    endloop
  endfacet
  facet normal 0 0 -1
    outer loop
      vertex -48.52 17.03 45
      vertex -52 19 45
      vertex -44 19 45
    endloop
  endfacet
  facet normal 0 0 -1
    outer loop
      vertex -49.3589 16.7755 45
      vertex -52 19 45
      vertex -49.0979 16.9151 45
    endloop
  endfacet
  facet normal 0 0 -1
    outer loop
      vertex -49.5877 16.5877 45
      vertex -52 19 45
      vertex -49.3589 16.7755 45
    endloop
  endfacet
  facet normal 0 0 -1
    outer loop
      vertex -49.7755 16.3589 45
      vertex -52 19 45
      vertex -49.5877 16.5877 45
    endloop
  endfacet
  facet normal 0 0 -1
    outer loop
      vertex -49.9151 16.0979 45
      vertex -52 19 45
      vertex -49.7755 16.3589 45
    endloop
  endfacet
  facet normal 0 0 -1
    outer loop
      vertex -50.001 15.8146 45
      vertex -52 19 45
      vertex -49.9151 16.0979 45
    endloop
  endfacet
  facet normal 0 0 -1
    outer loop
      vertex -50.03 15.52 45
      vertex -52 19 45
      vertex -50.001 15.8146 45
    endloop
  endfacet
  facet normal 0 0 -1
    outer loop
      vertex -50.001 15.2254 45
      vertex -52 19 45
      vertex -50.03 15.52 45
    endloop
  endfacet
  facet normal 1 -0 0
    outer loop
      vertex -26 -24 60.5
      vertex -26 -9 45
      vertex -26 -9 60.5
    endloop
  endfacet
  facet normal 1 0 0
    outer loop
      vertex -26 -9 45
      vertex -26 -24 60.5
      vertex -26 -24 45
    endloop
  endfacet
  facet normal -1 0 0
    outer loop
      vertex -34 -11 50
      vertex -34 -9.15151 45
      vertex -34 -11 45
    endloop
  endfacet
  facet normal -1 0 0
    outer loop
      vertex -34 -9.15151 45
      vertex -34 -11 50
      vertex -34 -9.15151 60.5
    endloop
  endfacet
  facet normal -1 0 0
    outer loop
      vertex -34 -24 60.5
      vertex -34 -11 50
      vertex -34 -24 50
    endloop
  endfacet
  facet normal -1 0 0
    outer loop
      vertex -34 -11 50
      vertex -34 -24 60.5
      vertex -34 -9.15151 60.5
    endloop
  endfacet
  facet normal 0 0 0
    outer loop
      vertex -34 -24 50
      vertex -34 -24 45
      vertex -34 -24 60.5
    endloop
  endfacet
  facet normal 0 0 1
    outer loop
      vertex -47.2645 14.6811 50
      vertex -44 19 50
      vertex -47.1249 14.9421 50
    endloop
  endfacet
  facet normal 0 0 1
    outer loop
      vertex -44 -11 50
      vertex -47.039 -15.2254 50
      vertex -47.01 -15.52 50
    endloop
  endfacet
  facet normal 0 0 1
    outer loop
      vertex -44 19 50
      vertex -47.2645 14.6811 50
      vertex -44 -11 50
    endloop
  endfacet
  facet normal 0 0 1
    outer loop
      vertex -44 -11 50
      vertex -47.1249 -14.9421 50
      vertex -47.039 -15.2254 50
    endloop
  endfacet
  facet normal -0 0 1
    outer loop
      vertex -47.4523 14.4523 50
      vertex -44 -11 50
      vertex -47.2645 14.6811 50
    endloop
  endfacet
  facet normal 0 0 1
    outer loop
      vertex -44 -11 50
      vertex -47.2645 -14.6811 50
      vertex -47.1249 -14.9421 50
    endloop
  endfacet
  facet normal -0 0 1
    outer loop
      vertex -47.6811 14.2645 50
      vertex -44 -11 50
      vertex -47.4523 14.4523 50
    endloop
  endfacet
  facet normal 0 0 1
    outer loop
      vertex -44 -11 50
      vertex -47.4523 -14.4523 50
      vertex -47.2645 -14.6811 50
    endloop
  endfacet
  facet normal -0 0 1
    outer loop
      vertex -47.9421 14.1249 50
      vertex -44 -11 50
      vertex -47.6811 14.2645 50
    endloop
  endfacet
  facet normal 0 0 1
    outer loop
      vertex -44 -11 50
      vertex -47.6811 -14.2645 50
      vertex -47.4523 -14.4523 50
    endloop
  endfacet
  facet normal -0 0 1
    outer loop
      vertex -48.2254 14.039 50
      vertex -44 -11 50
      vertex -47.9421 14.1249 50
    endloop
  endfacet
  facet normal 0 0 1
    outer loop
      vertex -44 -11 50
      vertex -47.9421 -14.1249 50
      vertex -47.6811 -14.2645 50
    endloop
  endfacet
  facet normal -0 0 1
    outer loop
      vertex -48.52 14.01 50
      vertex -44 -11 50
      vertex -48.2254 14.039 50
    endloop
  endfacet
  facet normal 0 -0 1
    outer loop
      vertex -48.2254 -14.039 50
      vertex -44 -11 50
      vertex -52 -11 50
    endloop
  endfacet
  facet normal 0 0 1
    outer loop
      vertex -44 -11 50
      vertex -48.52 14.01 50
      vertex -52 -11 50
    endloop
  endfacet
  facet normal 0 0 1
    outer loop
      vertex -44 -11 50
      vertex -48.2254 -14.039 50
      vertex -47.9421 -14.1249 50
    endloop
  endfacet
  facet normal 0 0 1
    outer loop
      vertex -52 -11 50
      vertex -48.52 14.01 50
      vertex -48.8146 14.039 50
    endloop
  endfacet
  facet normal 0 0 1
    outer loop
      vertex -48.2254 -14.039 50
      vertex -52 -11 50
      vertex -48.52 -14.01 50
    endloop
  endfacet
  facet normal 0 0 1
    outer loop
      vertex -52 -11 50
      vertex -48.8146 14.039 50
      vertex -49.0979 14.1249 50
    endloop
  endfacet
  facet normal 0 0 1
    outer loop
      vertex -48.52 -14.01 50
      vertex -52 -11 50
      vertex -48.8146 -14.039 50
    endloop
  endfacet
  facet normal 0 0 1
    outer loop
      vertex -52 -11 50
      vertex -49.0979 14.1249 50
      vertex -49.3589 14.2645 50
    endloop
  endfacet
  facet normal 0 0 1
    outer loop
      vertex -48.8146 -14.039 50
      vertex -52 -11 50
      vertex -49.0979 -14.1249 50
    endloop
  endfacet
  facet normal 0 0 1
    outer loop
      vertex -52 -11 50
      vertex -49.3589 14.2645 50
      vertex -49.5877 14.4523 50
    endloop
  endfacet
  facet normal 0 0 1
    outer loop
      vertex -49.0979 -14.1249 50
      vertex -52 -11 50
      vertex -49.3589 -14.2645 50
    endloop
  endfacet
  facet normal 0 0 1
    outer loop
      vertex -52 -11 50
      vertex -49.5877 14.4523 50
      vertex -49.7755 14.6811 50
    endloop
  endfacet
  facet normal 0 0 1
    outer loop
      vertex -49.3589 -14.2645 50
      vertex -52 -11 50
      vertex -49.5877 -14.4523 50
    endloop
  endfacet
  facet normal 0 0 1
    outer loop
      vertex -52 -11 50
      vertex -49.7755 14.6811 50
      vertex -49.9151 14.9421 50
    endloop
  endfacet
  facet normal 0 0 1
    outer loop
      vertex -49.5877 -14.4523 50
      vertex -52 -11 50
      vertex -49.7755 -14.6811 50
    endloop
  endfacet
  facet normal 0 0 1
    outer loop
      vertex -52 19 50
      vertex -49.9151 14.9421 50
      vertex -50.001 15.2254 50
    endloop
  endfacet
  facet normal 0 0 1
    outer loop
      vertex -49.7755 -14.6811 50
      vertex -52 -11 50
      vertex -49.9151 -14.9421 50
    endloop
  endfacet
  facet normal 0 0 1
    outer loop
      vertex -52 19 50
      vertex -50.001 15.2254 50
      vertex -50.03 15.52 50
    endloop
  endfacet
  facet normal 0 0 1
    outer loop
      vertex -49.9151 -14.9421 50
      vertex -52 -11 50
      vertex -50.001 -15.2254 50
    endloop
  endfacet
  facet normal 0 0 1
    outer loop
      vertex -47.039 15.2254 50
      vertex -44 19 50
      vertex -47.01 15.52 50
    endloop
  endfacet
  facet normal 0 0 1
    outer loop
      vertex -44 19 50
      vertex -47.039 15.8146 50
      vertex -47.01 15.52 50
    endloop
  endfacet
  facet normal 0 0 1
    outer loop
      vertex -44 19 50
      vertex -47.1249 16.0979 50
      vertex -47.039 15.8146 50
    endloop
  endfacet
  facet normal 0 0 1
    outer loop
      vertex -44 19 50
      vertex -47.2645 16.3589 50
      vertex -47.1249 16.0979 50
    endloop
  endfacet
  facet normal 0 0 1
    outer loop
      vertex -44 19 50
      vertex -47.4523 16.5877 50
      vertex -47.2645 16.3589 50
    endloop
  endfacet
  facet normal 0 0 1
    outer loop
      vertex -44 19 50
      vertex -47.6811 16.7755 50
      vertex -47.4523 16.5877 50
    endloop
  endfacet
  facet normal 0 0 1
    outer loop
      vertex -44 19 50
      vertex -47.9421 16.9151 50
      vertex -47.6811 16.7755 50
    endloop
  endfacet
  facet normal 0 0 1
    outer loop
      vertex -44 19 50
      vertex -48.2254 17.001 50
      vertex -47.9421 16.9151 50
    endloop
  endfacet
  facet normal 0 0 1
    outer loop
      vertex -44 19 50
      vertex -48.52 17.03 50
      vertex -48.2254 17.001 50
    endloop
  endfacet
  facet normal -0 0 1
    outer loop
      vertex -52 19 50
      vertex -48.52 17.03 50
      vertex -44 19 50
    endloop
  endfacet
  facet normal 0 0 1
    outer loop
      vertex -48.52 17.03 50
      vertex -52 19 50
      vertex -48.8146 17.001 50
    endloop
  endfacet
  facet normal 0 0 1
    outer loop
      vertex -49.9151 14.9421 50
      vertex -52 19 50
      vertex -52 -11 50
    endloop
  endfacet
  facet normal 0 0 1
    outer loop
      vertex -50.001 15.8146 50
      vertex -52 19 50
      vertex -50.03 15.52 50
    endloop
  endfacet
  facet normal 0 0 1
    outer loop
      vertex -49.9151 16.0979 50
      vertex -52 19 50
      vertex -50.001 15.8146 50
    endloop
  endfacet
  facet normal 0 0 1
    outer loop
      vertex -49.7755 16.3589 50
      vertex -52 19 50
      vertex -49.9151 16.0979 50
    endloop
  endfacet
  facet normal 0 0 1
    outer loop
      vertex -49.5877 16.5877 50
      vertex -52 19 50
      vertex -49.7755 16.3589 50
    endloop
  endfacet
  facet normal 0 0 1
    outer loop
      vertex -49.3589 16.7755 50
      vertex -52 19 50
      vertex -49.5877 16.5877 50
    endloop
  endfacet
  facet normal 0 0 1
    outer loop
      vertex -49.0979 16.9151 50
      vertex -52 19 50
      vertex -49.3589 16.7755 50
    endloop
  endfacet
  facet normal 0 0 1
    outer loop
      vertex -48.8146 17.001 50
      vertex -52 19 50
      vertex -49.0979 16.9151 50
    endloop
  endfacet
  facet normal 0 0 1
    outer loop
      vertex -44 -11 50
      vertex -34 -24 50
      vertex -34 -11 50
    endloop
  endfacet
  facet normal 0 0 1
    outer loop
      vertex -47.1249 14.9421 50
      vertex -44 19 50
      vertex -47.039 15.2254 50
    endloop
  endfacet
  facet normal 0 0 1
    outer loop
      vertex -47.039 -15.8146 50
      vertex -44 -11 50
      vertex -47.01 -15.52 50
    endloop
  endfacet
  facet normal 0 0 1
    outer loop
      vertex -44 -11 50
      vertex -47.039 -15.8146 50
      vertex -34 -24 50
    endloop
  endfacet
  facet normal -0 0 1
    outer loop
      vertex -47.1249 -16.0979 50
      vertex -34 -24 50
      vertex -47.039 -15.8146 50
    endloop
  endfacet
  facet normal -0 0 1
    outer loop
      vertex -47.2645 -16.3589 50
      vertex -34 -24 50
      vertex -47.1249 -16.0979 50
    endloop
  endfacet
  facet normal -0 0 1
    outer loop
      vertex -47.4523 -16.5877 50
      vertex -34 -24 50
      vertex -47.2645 -16.3589 50
    endloop
  endfacet
  facet normal -0 0 1
    outer loop
      vertex -47.6811 -16.7755 50
      vertex -34 -24 50
      vertex -47.4523 -16.5877 50
    endloop
  endfacet
  facet normal 0 0 1
    outer loop
      vertex -52 -24 50
      vertex -47.6811 -16.7755 50
      vertex -47.9421 -16.9151 50
    endloop
  endfacet
  facet normal 0 0 1
    outer loop
      vertex -52 -24 50
      vertex -47.9421 -16.9151 50
      vertex -48.2254 -17.001 50
    endloop
  endfacet
  facet normal 0 0 1
    outer loop
      vertex -52 -24 50
      vertex -48.2254 -17.001 50
      vertex -48.52 -17.03 50
    endloop
  endfacet
  facet normal 0 0 1
    outer loop
      vertex -52 -24 50
      vertex -48.52 -17.03 50
      vertex -48.8146 -17.001 50
    endloop
  endfacet
  facet normal 0 0 1
    outer loop
      vertex -52 -24 50
      vertex -48.8146 -17.001 50
      vertex -49.0979 -16.9151 50
    endloop
  endfacet
  facet normal 0 0 1
    outer loop
      vertex -50.001 -15.2254 50
      vertex -52 -11 50
      vertex -50.03 -15.52 50
    endloop
  endfacet
  facet normal 0 0 1
    outer loop
      vertex -52 -11 50
      vertex -50.001 -15.8146 50
      vertex -50.03 -15.52 50
    endloop
  endfacet
  facet normal 0 0 1
    outer loop
      vertex -52 -24 50
      vertex -50.001 -15.8146 50
      vertex -52 -11 50
    endloop
  endfacet
  facet normal 0 0 1
    outer loop
      vertex -47.6811 -16.7755 50
      vertex -52 -24 50
      vertex -34 -24 50
    endloop
  endfacet
  facet normal 0 0 1
    outer loop
      vertex -49.3589 -16.7755 50
      vertex -52 -24 50
      vertex -49.0979 -16.9151 50
    endloop
  endfacet
  facet normal 0 0 1
    outer loop
      vertex -49.5877 -16.5877 50
      vertex -52 -24 50
      vertex -49.3589 -16.7755 50
    endloop
  endfacet
  facet normal 0 0 1
    outer loop
      vertex -49.7755 -16.3589 50
      vertex -52 -24 50
      vertex -49.5877 -16.5877 50
    endloop
  endfacet
  facet normal 0 0 1
    outer loop
      vertex -49.9151 -16.0979 50
      vertex -52 -24 50
      vertex -49.7755 -16.3589 50
    endloop
  endfacet
  facet normal 0 0 1
    outer loop
      vertex -50.001 -15.8146 50
      vertex -52 -24 50
      vertex -49.9151 -16.0979 50
    endloop
  endfacet
  facet normal 0 -1 0
    outer loop
      vertex -52 -24 45
      vertex -34 -24 50
      vertex -52 -24 50
    endloop
  endfacet
  facet normal 0 -1 -0
    outer loop
      vertex -34 -24 50
      vertex -52 -24 45
      vertex -34 -24 45
    endloop
  endfacet
  facet normal -1 0 0
    outer loop
      vertex -52 -24 45
      vertex -52 -11 50
      vertex -52 -11 45
    endloop
  endfacet
  facet normal -1 -0 0
    outer loop
      vertex -52 -11 50
      vertex -52 -24 45
      vertex -52 -24 50
    endloop
  endfacet
  facet normal 0 1 -0
    outer loop
      vertex -44 19 45
      vertex -52 19 50
      vertex -44 19 50
    endloop
  endfacet
  facet normal 0 1 0
    outer loop
      vertex -52 19 50
      vertex -44 19 45
      vertex -52 19 45
    endloop
  endfacet
  facet normal -1 0 0
    outer loop
      vertex -52 -11 45
      vertex -52 19 50
      vertex -52 19 45
    endloop
  endfacet
  facet normal -1 -0 0
    outer loop
      vertex -52 19 50
      vertex -52 -11 45
      vertex -52 -11 50
    endloop
  endfacet
  facet normal 1 -0 0
    outer loop
      vertex -44 -11 50
      vertex -44 19 45
      vertex -44 19 50
    endloop
  endfacet
  facet normal 1 0 0
    outer loop
      vertex -44 19 45
      vertex -44 -11 50
      vertex -44 -11 45
    endloop
  endfacet
  facet normal 9.53674e-08 1 -0
    outer loop
      vertex -34 -11 45
      vertex -44 -11 50
      vertex -34 -11 50
    endloop
  endfacet
  facet normal 9.53674e-08 1 0
    outer loop
      vertex -44 -11 50
      vertex -34 -11 45
      vertex -44 -11 45
    endloop
  endfacet
  facet normal 0.195089 -0.980785 0
    outer loop
      vertex -30.4784 -19.3451 45
      vertex -30 -19.25 60.5
      vertex -30.4784 -19.3451 60.5
    endloop
  endfacet
  facet normal 0.195089 -0.980785 0
    outer loop
      vertex -30 -19.25 60.5
      vertex -30.4784 -19.3451 45
      vertex -30 -19.25 45
    endloop
  endfacet
  facet normal 0.980785 -0.195093 0
    outer loop
      vertex -31.25 -20.5 60.5
      vertex -31.1548 -20.0216 45
      vertex -31.1548 -20.0216 60.5
    endloop
  endfacet
  facet normal 0.980785 -0.195093 0
    outer loop
      vertex -31.1548 -20.0216 45
      vertex -31.25 -20.5 60.5
      vertex -31.25 -20.5 45
    endloop
  endfacet
  facet normal -0.195089 0.980786 0
    outer loop
      vertex -29.5216 -21.6549 45
      vertex -30 -21.75 60.5
      vertex -29.5216 -21.6549 60.5
    endloop
  endfacet
  facet normal -0.195089 0.980786 0
    outer loop
      vertex -30 -21.75 60.5
      vertex -29.5216 -21.6549 45
      vertex -30 -21.75 45
    endloop
  endfacet
  facet normal -0.55557 -0.83147 0
    outer loop
      vertex -29.5216 -19.3451 45
      vertex -29.1161 -19.6161 60.5
      vertex -29.5216 -19.3451 60.5
    endloop
  endfacet
  facet normal -0.55557 -0.83147 -0
    outer loop
      vertex -29.1161 -19.6161 60.5
      vertex -29.5216 -19.3451 45
      vertex -29.1161 -19.6161 45
    endloop
  endfacet
  facet normal -0.831471 -0.555568 0
    outer loop
      vertex -28.8451 -20.0216 45
      vertex -29.1161 -19.6161 60.5
      vertex -29.1161 -19.6161 45
    endloop
  endfacet
  facet normal -0.831471 -0.555568 0
    outer loop
      vertex -29.1161 -19.6161 60.5
      vertex -28.8451 -20.0216 45
      vertex -28.8451 -20.0216 60.5
    endloop
  endfacet
  facet normal -0.980785 -0.195089 0
    outer loop
      vertex -28.75 -20.5 45
      vertex -28.8451 -20.0216 60.5
      vertex -28.8451 -20.0216 45
    endloop
  endfacet
  facet normal -0.980785 -0.195089 0
    outer loop
      vertex -28.8451 -20.0216 60.5
      vertex -28.75 -20.5 45
      vertex -28.75 -20.5 60.5
    endloop
  endfacet
  facet normal 0.831471 -0.555568 0
    outer loop
      vertex -31.1548 -20.0216 60.5
      vertex -30.8839 -19.6161 45
      vertex -30.8839 -19.6161 60.5
    endloop
  endfacet
  facet normal 0.831471 -0.555568 0
    outer loop
      vertex -30.8839 -19.6161 45
      vertex -31.1548 -20.0216 60.5
      vertex -31.1548 -20.0216 45
    endloop
  endfacet
  facet normal 0.55557 -0.83147 0
    outer loop
      vertex -30.8839 -19.6161 45
      vertex -30.4784 -19.3451 60.5
      vertex -30.8839 -19.6161 60.5
    endloop
  endfacet
  facet normal 0.55557 -0.83147 0
    outer loop
      vertex -30.4784 -19.3451 60.5
      vertex -30.8839 -19.6161 45
      vertex -30.4784 -19.3451 45
    endloop
  endfacet
  facet normal 0.980785 0.195093 0
    outer loop
      vertex -31.1548 -20.9784 60.5
      vertex -31.25 -20.5 45
      vertex -31.25 -20.5 60.5
    endloop
  endfacet
  facet normal 0.980785 0.195093 0
    outer loop
      vertex -31.25 -20.5 45
      vertex -31.1548 -20.9784 60.5
      vertex -31.1548 -20.9784 45
    endloop
  endfacet
  facet normal 0.831471 0.555568 0
    outer loop
      vertex -30.8839 -21.3839 60.5
      vertex -31.1548 -20.9784 45
      vertex -31.1548 -20.9784 60.5
    endloop
  endfacet
  facet normal 0.831471 0.555568 0
    outer loop
      vertex -31.1548 -20.9784 45
      vertex -30.8839 -21.3839 60.5
      vertex -30.8839 -21.3839 45
    endloop
  endfacet
  facet normal 0.195089 0.980785 -0
    outer loop
      vertex -30 -21.75 45
      vertex -30.4784 -21.6549 60.5
      vertex -30 -21.75 60.5
    endloop
  endfacet
  facet normal 0.195089 0.980785 0
    outer loop
      vertex -30.4784 -21.6549 60.5
      vertex -30 -21.75 45
      vertex -30.4784 -21.6549 45
    endloop
  endfacet
  facet normal 0.55557 0.83147 -0
    outer loop
      vertex -30.4784 -21.6549 45
      vertex -30.8839 -21.3839 60.5
      vertex -30.4784 -21.6549 60.5
    endloop
  endfacet
  facet normal 0.55557 0.83147 0
    outer loop
      vertex -30.8839 -21.3839 60.5
      vertex -30.4784 -21.6549 45
      vertex -30.8839 -21.3839 45
    endloop
  endfacet
  facet normal -0.55557 0.83147 0
    outer loop
      vertex -29.1161 -21.3839 45
      vertex -29.5216 -21.6549 60.5
      vertex -29.1161 -21.3839 60.5
    endloop
  endfacet
  facet normal -0.55557 0.83147 0
    outer loop
      vertex -29.5216 -21.6549 60.5
      vertex -29.1161 -21.3839 45
      vertex -29.5216 -21.6549 45
    endloop
  endfacet
  facet normal -0.980785 0.195089 0
    outer loop
      vertex -28.8451 -20.9784 45
      vertex -28.75 -20.5 60.5
      vertex -28.75 -20.5 45
    endloop
  endfacet
  facet normal -0.980785 0.195089 0
    outer loop
      vertex -28.75 -20.5 60.5
      vertex -28.8451 -20.9784 45
      vertex -28.8451 -20.9784 60.5
    endloop
  endfacet
  facet normal -0.831471 0.555568 0
    outer loop
      vertex -29.1161 -21.3839 45
      vertex -28.8451 -20.9784 60.5
      vertex -28.8451 -20.9784 45
    endloop
  endfacet
  facet normal -0.831471 0.555568 0
    outer loop
      vertex -28.8451 -20.9784 60.5
      vertex -29.1161 -21.3839 45
      vertex -29.1161 -21.3839 60.5
    endloop
  endfacet
  facet normal -0.195089 -0.980786 0
    outer loop
      vertex -30 -19.25 45
      vertex -29.5216 -19.3451 60.5
      vertex -30 -19.25 60.5
    endloop
  endfacet
  facet normal -0.195089 -0.980786 -0
    outer loop
      vertex -29.5216 -19.3451 60.5
      vertex -30 -19.25 45
      vertex -29.5216 -19.3451 45
    endloop
  endfacet
  facet normal 0.195091 -0.980785 0
    outer loop
      vertex -30.4784 -10.3452 45
      vertex -30 -10.25 60.5
      vertex -30.4784 -10.3452 60.5
    endloop
  endfacet
  facet normal 0.195091 -0.980785 0
    outer loop
      vertex -30 -10.25 60.5
      vertex -30.4784 -10.3452 45
      vertex -30 -10.25 45
    endloop
  endfacet
  facet normal 0.980785 -0.195093 0
    outer loop
      vertex -31.25 -11.5 60.5
      vertex -31.1548 -11.0216 45
      vertex -31.1548 -11.0216 60.5
    endloop
  endfacet
  facet normal 0.980785 -0.195093 0
    outer loop
      vertex -31.1548 -11.0216 45
      vertex -31.25 -11.5 60.5
      vertex -31.25 -11.5 45
    endloop
  endfacet
  facet normal -0.195089 0.980786 0
    outer loop
      vertex -29.5216 -12.6549 45
      vertex -30 -12.75 60.5
      vertex -29.5216 -12.6549 60.5
    endloop
  endfacet
  facet normal -0.195089 0.980786 0
    outer loop
      vertex -30 -12.75 60.5
      vertex -29.5216 -12.6549 45
      vertex -30 -12.75 45
    endloop
  endfacet
  facet normal -0.55557 -0.83147 0
    outer loop
      vertex -29.5216 -10.3452 45
      vertex -29.1161 -10.6161 60.5
      vertex -29.5216 -10.3452 60.5
    endloop
  endfacet
  facet normal -0.55557 -0.83147 -0
    outer loop
      vertex -29.1161 -10.6161 60.5
      vertex -29.5216 -10.3452 45
      vertex -29.1161 -10.6161 45
    endloop
  endfacet
  facet normal -0.83147 -0.555569 0
    outer loop
      vertex -28.8451 -11.0216 45
      vertex -29.1161 -10.6161 60.5
      vertex -29.1161 -10.6161 45
    endloop
  endfacet
  facet normal -0.83147 -0.555569 0
    outer loop
      vertex -29.1161 -10.6161 60.5
      vertex -28.8451 -11.0216 45
      vertex -28.8451 -11.0216 60.5
    endloop
  endfacet
  facet normal -0.980785 -0.195089 0
    outer loop
      vertex -28.75 -11.5 45
      vertex -28.8451 -11.0216 60.5
      vertex -28.8451 -11.0216 45
    endloop
  endfacet
  facet normal -0.980785 -0.195089 0
    outer loop
      vertex -28.8451 -11.0216 60.5
      vertex -28.75 -11.5 45
      vertex -28.75 -11.5 60.5
    endloop
  endfacet
  facet normal 0.83147 -0.555569 0
    outer loop
      vertex -31.1548 -11.0216 60.5
      vertex -30.8839 -10.6161 45
      vertex -30.8839 -10.6161 60.5
    endloop
  endfacet
  facet normal 0.83147 -0.555569 0
    outer loop
      vertex -30.8839 -10.6161 45
      vertex -31.1548 -11.0216 60.5
      vertex -31.1548 -11.0216 45
    endloop
  endfacet
  facet normal 0.55557 -0.83147 0
    outer loop
      vertex -30.8839 -10.6161 45
      vertex -30.4784 -10.3452 60.5
      vertex -30.8839 -10.6161 60.5
    endloop
  endfacet
  facet normal 0.55557 -0.83147 0
    outer loop
      vertex -30.4784 -10.3452 60.5
      vertex -30.8839 -10.6161 45
      vertex -30.4784 -10.3452 45
    endloop
  endfacet
  facet normal 0.980785 0.195093 0
    outer loop
      vertex -31.1548 -11.9784 60.5
      vertex -31.25 -11.5 45
      vertex -31.25 -11.5 60.5
    endloop
  endfacet
  facet normal 0.980785 0.195093 0
    outer loop
      vertex -31.25 -11.5 45
      vertex -31.1548 -11.9784 60.5
      vertex -31.1548 -11.9784 45
    endloop
  endfacet
  facet normal 0.83147 0.555569 0
    outer loop
      vertex -30.8839 -12.3839 60.5
      vertex -31.1548 -11.9784 45
      vertex -31.1548 -11.9784 60.5
    endloop
  endfacet
  facet normal 0.83147 0.555569 0
    outer loop
      vertex -31.1548 -11.9784 45
      vertex -30.8839 -12.3839 60.5
      vertex -30.8839 -12.3839 45
    endloop
  endfacet
  facet normal 0.195089 0.980785 -0
    outer loop
      vertex -30 -12.75 45
      vertex -30.4784 -12.6549 60.5
      vertex -30 -12.75 60.5
    endloop
  endfacet
  facet normal 0.195089 0.980785 0
    outer loop
      vertex -30.4784 -12.6549 60.5
      vertex -30 -12.75 45
      vertex -30.4784 -12.6549 45
    endloop
  endfacet
  facet normal 0.55557 0.83147 -0
    outer loop
      vertex -30.4784 -12.6549 45
      vertex -30.8839 -12.3839 60.5
      vertex -30.4784 -12.6549 60.5
    endloop
  endfacet
  facet normal 0.55557 0.83147 0
    outer loop
      vertex -30.8839 -12.3839 60.5
      vertex -30.4784 -12.6549 45
      vertex -30.8839 -12.3839 45
    endloop
  endfacet
  facet normal -0.55557 0.83147 0
    outer loop
      vertex -29.1161 -12.3839 45
      vertex -29.5216 -12.6549 60.5
      vertex -29.1161 -12.3839 60.5
    endloop
  endfacet
  facet normal -0.55557 0.83147 0
    outer loop
      vertex -29.5216 -12.6549 60.5
      vertex -29.1161 -12.3839 45
      vertex -29.5216 -12.6549 45
    endloop
  endfacet
  facet normal -0.980786 0.195089 0
    outer loop
      vertex -28.8451 -11.9784 45
      vertex -28.75 -11.5 60.5
      vertex -28.75 -11.5 45
    endloop
  endfacet
  facet normal -0.980786 0.195089 0
    outer loop
      vertex -28.75 -11.5 60.5
      vertex -28.8451 -11.9784 45
      vertex -28.8451 -11.9784 60.5
    endloop
  endfacet
  facet normal -0.83147 0.555569 0
    outer loop
      vertex -29.1161 -12.3839 45
      vertex -28.8451 -11.9784 60.5
      vertex -28.8451 -11.9784 45
    endloop
  endfacet
  facet normal -0.83147 0.555569 0
    outer loop
      vertex -28.8451 -11.9784 60.5
      vertex -29.1161 -12.3839 45
      vertex -29.1161 -12.3839 60.5
    endloop
  endfacet
  facet normal -0.195091 -0.980785 0
    outer loop
      vertex -30 -10.25 45
      vertex -29.5216 -10.3452 60.5
      vertex -30 -10.25 60.5
    endloop
  endfacet
  facet normal -0.195091 -0.980785 -0
    outer loop
      vertex -29.5216 -10.3452 60.5
      vertex -30 -10.25 45
      vertex -29.5216 -10.3452 45
    endloop
  endfacet
  facet normal -0.0980172 0.995185 0
    outer loop
      vertex -31.1954 -9.07226 45
      vertex -33 -9.25 60.5
      vertex -31.1954 -9.07226 60.5
    endloop
  endfacet
  facet normal -0.0980172 0.995185 0
    outer loop
      vertex -33 -9.25 60.5
      vertex -31.1954 -9.07226 45
      vertex -33 -9.25 45
    endloop
  endfacet
  facet normal -0.290285 0.95694 0
    outer loop
      vertex -30.9572 -9 45
      vertex -31.1954 -9.07226 60.5
      vertex -30.9572 -9 60.5
    endloop
  endfacet
  facet normal -0.290285 0.95694 0
    outer loop
      vertex -31.1954 -9.07226 60.5
      vertex -30.9572 -9 45
      vertex -31.1954 -9.07226 45
    endloop
  endfacet
  facet normal 0.0980174 0.995185 -0
    outer loop
      vertex -33 -9.25 45
      vertex -34 -9.15151 60.5
      vertex -33 -9.25 60.5
    endloop
  endfacet
  facet normal 0.0980174 0.995185 0
    outer loop
      vertex -34 -9.15151 60.5
      vertex -33 -9.25 45
      vertex -34 -9.15151 45
    endloop
  endfacet
endsolid OpenSCAD_Model
