solid OpenSCAD_Model
  facet normal -1 0 0
    outer loop
      vertex -107 9 250
      vertex -107 21 261
      vertex -107 21 250
    endloop
  endfacet
  facet normal -1 -0 0
    outer loop
      vertex -107 21 261
      vertex -107 9 250
      vertex -107 9 261
    endloop
  endfacet
  facet normal 0 0 1
    outer loop
      vertex -96 21 261
      vertex -97.5 15.5 261
      vertex -96 9 261
    endloop
  endfacet
  facet normal 0 0 1
    outer loop
      vertex -96 21 261
      vertex -97.701 16.25 261
      vertex -97.5 15.5 261
    endloop
  endfacet
  facet normal 0 0 1
    outer loop
      vertex -96 21 261
      vertex -98.25 16.799 261
      vertex -97.701 16.25 261
    endloop
  endfacet
  facet normal 0 0 1
    outer loop
      vertex -96 21 261
      vertex -99 17 261
      vertex -98.25 16.799 261
    endloop
  endfacet
  facet normal 0 0 1
    outer loop
      vertex -96 21 261
      vertex -99.75 16.799 261
      vertex -99 17 261
    endloop
  endfacet
  facet normal -0 0 1
    outer loop
      vertex -107 21 261
      vertex -99.75 16.799 261
      vertex -96 21 261
    endloop
  endfacet
  facet normal 0 0 1
    outer loop
      vertex -100.299 16.25 261
      vertex -107 21 261
      vertex -100.5 15.5 261
    endloop
  endfacet
  facet normal 0 0 1
    outer loop
      vertex -99.75 16.799 261
      vertex -107 21 261
      vertex -100.299 16.25 261
    endloop
  endfacet
  facet normal -0 0 1
    outer loop
      vertex -97.701 14.75 261
      vertex -96 9 261
      vertex -97.5 15.5 261
    endloop
  endfacet
  facet normal -0 0 1
    outer loop
      vertex -98.25 14.201 261
      vertex -96 9 261
      vertex -97.701 14.75 261
    endloop
  endfacet
  facet normal -0 0 1
    outer loop
      vertex -99 14 261
      vertex -96 9 261
      vertex -98.25 14.201 261
    endloop
  endfacet
  facet normal 0 0 1
    outer loop
      vertex -99.75 14.201 261
      vertex -96 9 261
      vertex -99 14 261
    endloop
  endfacet
  facet normal 0 0 1
    outer loop
      vertex -107 9 261
      vertex -99.75 14.201 261
      vertex -100.299 14.75 261
    endloop
  endfacet
  facet normal 0 0 1
    outer loop
      vertex -107 9 261
      vertex -100.5 15.5 261
      vertex -107 21 261
    endloop
  endfacet
  facet normal 0 0 1
    outer loop
      vertex -100.5 15.5 261
      vertex -107 9 261
      vertex -100.299 14.75 261
    endloop
  endfacet
  facet normal 0 0 1
    outer loop
      vertex -99.75 14.201 261
      vertex -107 9 261
      vertex -96 9 261
    endloop
  endfacet
  facet normal 0 1 0
    outer loop
      vertex -96 21 261
      vertex -100.375 21 255.815
      vertex -107 21 261
    endloop
  endfacet
  facet normal 0 1 0
    outer loop
      vertex -96 21 261
      vertex -98.75 21 253
      vertex -100.375 21 255.815
    endloop
  endfacet
  facet normal 0 1 0
    outer loop
      vertex -107 21 250
      vertex -100.375 21 250.185
      vertex -96 21 250
    endloop
  endfacet
  facet normal 0 1 0
    outer loop
      vertex -98.75 21 253
      vertex -96 21 250
      vertex -100.375 21 250.185
    endloop
  endfacet
  facet normal 0 1 -0
    outer loop
      vertex -96 21 250
      vertex -98.75 21 253
      vertex -96 21 261
    endloop
  endfacet
  facet normal 0 1 -0
    outer loop
      vertex -103.625 21 255.815
      vertex -107 21 261
      vertex -100.375 21 255.815
    endloop
  endfacet
  facet normal 0 1 -0
    outer loop
      vertex -105.25 21 253
      vertex -107 21 261
      vertex -103.625 21 255.815
    endloop
  endfacet
  facet normal 0 1 0
    outer loop
      vertex -105.25 21 253
      vertex -107 21 250
      vertex -107 21 261
    endloop
  endfacet
  facet normal 0 1 0
    outer loop
      vertex -103.625 21 250.185
      vertex -107 21 250
      vertex -105.25 21 253
    endloop
  endfacet
  facet normal 0 1 0
    outer loop
      vertex -100.375 21 250.185
      vertex -107 21 250
      vertex -103.625 21 250.185
    endloop
  endfacet
  facet normal 0 0 -1
    outer loop
      vertex -96 9 250
      vertex -97.5 15.5 250
      vertex -96 21 250
    endloop
  endfacet
  facet normal 0 0 -1
    outer loop
      vertex -96 9 250
      vertex -97.701 14.75 250
      vertex -97.5 15.5 250
    endloop
  endfacet
  facet normal 0 0 -1
    outer loop
      vertex -96 9 250
      vertex -98.25 14.201 250
      vertex -97.701 14.75 250
    endloop
  endfacet
  facet normal 0 0 -1
    outer loop
      vertex -96 9 250
      vertex -99 14 250
      vertex -98.25 14.201 250
    endloop
  endfacet
  facet normal 0 0 -1
    outer loop
      vertex -96 9 250
      vertex -99.75 14.201 250
      vertex -99 14 250
    endloop
  endfacet
  facet normal 0 0 -1
    outer loop
      vertex -107 9 250
      vertex -99.75 14.201 250
      vertex -96 9 250
    endloop
  endfacet
  facet normal -0 0 -1
    outer loop
      vertex -100.299 14.75 250
      vertex -107 9 250
      vertex -100.5 15.5 250
    endloop
  endfacet
  facet normal -0 0 -1
    outer loop
      vertex -99.75 14.201 250
      vertex -107 9 250
      vertex -100.299 14.75 250
    endloop
  endfacet
  facet normal 0 0 -1
    outer loop
      vertex -97.701 16.25 250
      vertex -96 21 250
      vertex -97.5 15.5 250
    endloop
  endfacet
  facet normal 0 0 -1
    outer loop
      vertex -98.25 16.799 250
      vertex -96 21 250
      vertex -97.701 16.25 250
    endloop
  endfacet
  facet normal 0 0 -1
    outer loop
      vertex -99 17 250
      vertex -96 21 250
      vertex -98.25 16.799 250
    endloop
  endfacet
  facet normal 0 0 -1
    outer loop
      vertex -99.75 16.799 250
      vertex -96 21 250
      vertex -99 17 250
    endloop
  endfacet
  facet normal 0 0 -1
    outer loop
      vertex -107 21 250
      vertex -99.75 16.799 250
      vertex -100.299 16.25 250
    endloop
  endfacet
  facet normal 0 0 -1
    outer loop
      vertex -107 21 250
      vertex -100.5 15.5 250
      vertex -107 9 250
    endloop
  endfacet
  facet normal 0 0 -1
    outer loop
      vertex -100.5 15.5 250
      vertex -107 21 250
      vertex -100.299 16.25 250
    endloop
  endfacet
  facet normal 0 0 -1
    outer loop
      vertex -99.75 16.799 250
      vertex -107 21 250
      vertex -96 21 250
    endloop
  endfacet
  facet normal 0 -1 0
    outer loop
      vertex -107 9 261
      vertex -102 9 254.5
      vertex -96 9 261
    endloop
  endfacet
  facet normal 0 -1 0
    outer loop
      vertex -107 9 261
      vertex -102.75 9 254.299
      vertex -102 9 254.5
    endloop
  endfacet
  facet normal 0 -1 0
    outer loop
      vertex -107 9 261
      vertex -103.044 9 254.005
      vertex -102.75 9 254.299
    endloop
  endfacet
  facet normal 0 -1 0
    outer loop
      vertex -107 9 261
      vertex -103.299 9 253.75
      vertex -103.044 9 254.005
    endloop
  endfacet
  facet normal 0 -1 0
    outer loop
      vertex -107 9 250
      vertex -103.299 9 253.75
      vertex -107 9 261
    endloop
  endfacet
  facet normal 0 -1 0
    outer loop
      vertex -103.299 9 253.75
      vertex -107 9 250
      vertex -103.392 9 253.401
    endloop
  endfacet
  facet normal 0 -1 0
    outer loop
      vertex -103.392 9 253.401
      vertex -107 9 250
      vertex -103.5 9 253
    endloop
  endfacet
  facet normal 0 -1 -0
    outer loop
      vertex -102.75 9 251.701
      vertex -107 9 250
      vertex -102 9 251.5
    endloop
  endfacet
  facet normal 0 -1 -0
    outer loop
      vertex -103.299 9 252.25
      vertex -107 9 250
      vertex -102.75 9 251.701
    endloop
  endfacet
  facet normal 0 -1 -0
    outer loop
      vertex -103.5 9 253
      vertex -107 9 250
      vertex -103.299 9 252.25
    endloop
  endfacet
  facet normal 0 -1 0
    outer loop
      vertex -101.25 9 254.299
      vertex -96 9 261
      vertex -102 9 254.5
    endloop
  endfacet
  facet normal 0 -1 0
    outer loop
      vertex -100.701 9 253.75
      vertex -96 9 261
      vertex -101.25 9 254.299
    endloop
  endfacet
  facet normal 0 -1 0
    outer loop
      vertex -96 9 250
      vertex -100.701 9 253.75
      vertex -100.5 9 253
    endloop
  endfacet
  facet normal 0 -1 0
    outer loop
      vertex -96 9 250
      vertex -100.5 9 253
      vertex -100.701 9 252.25
    endloop
  endfacet
  facet normal 0 -1 0
    outer loop
      vertex -96 9 250
      vertex -102 9 251.5
      vertex -107 9 250
    endloop
  endfacet
  facet normal 0 -1 0
    outer loop
      vertex -100.701 9 253.75
      vertex -96 9 250
      vertex -96 9 261
    endloop
  endfacet
  facet normal 0 -1 0
    outer loop
      vertex -101.25 9 251.701
      vertex -96 9 250
      vertex -100.701 9 252.25
    endloop
  endfacet
  facet normal 0 -1 0
    outer loop
      vertex -102 9 251.5
      vertex -96 9 250
      vertex -101.25 9 251.701
    endloop
  endfacet
  facet normal 1 0 0
    outer loop
      vertex -96 19.2 256
      vertex -96 21 261
      vertex -96 19.2 259
    endloop
  endfacet
  facet normal 1 0 0
    outer loop
      vertex -96 21 261
      vertex -96 11.8 259
      vertex -96 19.2 259
    endloop
  endfacet
  facet normal 1 0 0
    outer loop
      vertex -96 11.8 259
      vertex -96 9 261
      vertex -96 11.8 256
    endloop
  endfacet
  facet normal 1 -0 0
    outer loop
      vertex -96 9 261
      vertex -96 11.8 259
      vertex -96 21 261
    endloop
  endfacet
  facet normal 1 0 0
    outer loop
      vertex -96 21 261
      vertex -96 19.2 256
      vertex -96 21 250
    endloop
  endfacet
  facet normal 1 -0 0
    outer loop
      vertex -96 11.8 256
      vertex -96 21 250
      vertex -96 19.2 256
    endloop
  endfacet
  facet normal 1 0 0
    outer loop
      vertex -96 11.8 256
      vertex -96 9 250
      vertex -96 21 250
    endloop
  endfacet
  facet normal 1 0 0
    outer loop
      vertex -96 9 250
      vertex -96 11.8 256
      vertex -96 9 261
    endloop
  endfacet
  facet normal -1 0 0
    outer loop
      vertex -107 -21 250
      vertex -107 -9 261
      vertex -107 -9 250
    endloop
  endfacet
  facet normal -1 -0 0
    outer loop
      vertex -107 -9 261
      vertex -107 -21 250
      vertex -107 -21 261
    endloop
  endfacet
  facet normal 0 0 1
    outer loop
      vertex -96 -9 261
      vertex -97.5 -15.5 261
      vertex -96 -21 261
    endloop
  endfacet
  facet normal 0 0 1
    outer loop
      vertex -96 -9 261
      vertex -97.701 -14.75 261
      vertex -97.5 -15.5 261
    endloop
  endfacet
  facet normal 0 0 1
    outer loop
      vertex -96 -9 261
      vertex -98.25 -14.201 261
      vertex -97.701 -14.75 261
    endloop
  endfacet
  facet normal 0 0 1
    outer loop
      vertex -96 -9 261
      vertex -99 -14 261
      vertex -98.25 -14.201 261
    endloop
  endfacet
  facet normal 0 0 1
    outer loop
      vertex -96 -9 261
      vertex -99.75 -14.201 261
      vertex -99 -14 261
    endloop
  endfacet
  facet normal -0 0 1
    outer loop
      vertex -107 -9 261
      vertex -99.75 -14.201 261
      vertex -96 -9 261
    endloop
  endfacet
  facet normal 0 0 1
    outer loop
      vertex -100.299 -14.75 261
      vertex -107 -9 261
      vertex -100.5 -15.5 261
    endloop
  endfacet
  facet normal 0 0 1
    outer loop
      vertex -99.75 -14.201 261
      vertex -107 -9 261
      vertex -100.299 -14.75 261
    endloop
  endfacet
  facet normal -0 0 1
    outer loop
      vertex -97.701 -16.25 261
      vertex -96 -21 261
      vertex -97.5 -15.5 261
    endloop
  endfacet
  facet normal -0 0 1
    outer loop
      vertex -98.25 -16.799 261
      vertex -96 -21 261
      vertex -97.701 -16.25 261
    endloop
  endfacet
  facet normal -0 0 1
    outer loop
      vertex -99 -17 261
      vertex -96 -21 261
      vertex -98.25 -16.799 261
    endloop
  endfacet
  facet normal 0 0 1
    outer loop
      vertex -99.75 -16.799 261
      vertex -96 -21 261
      vertex -99 -17 261
    endloop
  endfacet
  facet normal 0 0 1
    outer loop
      vertex -107 -21 261
      vertex -99.75 -16.799 261
      vertex -100.299 -16.25 261
    endloop
  endfacet
  facet normal 0 0 1
    outer loop
      vertex -107 -21 261
      vertex -100.5 -15.5 261
      vertex -107 -9 261
    endloop
  endfacet
  facet normal 0 0 1
    outer loop
      vertex -100.5 -15.5 261
      vertex -107 -21 261
      vertex -100.299 -16.25 261
    endloop
  endfacet
  facet normal 0 0 1
    outer loop
      vertex -99.75 -16.799 261
      vertex -107 -21 261
      vertex -96 -21 261
    endloop
  endfacet
  facet normal 0 1 0
    outer loop
      vertex -96 -9 261
      vertex -102 -9 254.5
      vertex -107 -9 261
    endloop
  endfacet
  facet normal 0 1 0
    outer loop
      vertex -96 -9 261
      vertex -101.25 -9 254.299
      vertex -102 -9 254.5
    endloop
  endfacet
  facet normal 0 1 0
    outer loop
      vertex -96 -9 261
      vertex -100.701 -9 253.75
      vertex -101.25 -9 254.299
    endloop
  endfacet
  facet normal 0 1 -0
    outer loop
      vertex -96 -9 250
      vertex -100.701 -9 253.75
      vertex -96 -9 261
    endloop
  endfacet
  facet normal 0 1 0
    outer loop
      vertex -100.701 -9 253.75
      vertex -96 -9 250
      vertex -100.5 -9 253
    endloop
  endfacet
  facet normal 0 1 0
    outer loop
      vertex -101.25 -9 251.701
      vertex -96 -9 250
      vertex -102 -9 251.5
    endloop
  endfacet
  facet normal 0 1 0
    outer loop
      vertex -100.701 -9 252.25
      vertex -96 -9 250
      vertex -101.25 -9 251.701
    endloop
  endfacet
  facet normal 0 1 0
    outer loop
      vertex -100.5 -9 253
      vertex -96 -9 250
      vertex -100.701 -9 252.25
    endloop
  endfacet
  facet normal 0 1 -0
    outer loop
      vertex -102.75 -9 254.299
      vertex -107 -9 261
      vertex -102 -9 254.5
    endloop
  endfacet
  facet normal 0 1 -0
    outer loop
      vertex -102.945 -9 254.104
      vertex -107 -9 261
      vertex -102.75 -9 254.299
    endloop
  endfacet
  facet normal 0 1 -0
    outer loop
      vertex -103.299 -9 253.75
      vertex -107 -9 261
      vertex -102.945 -9 254.104
    endloop
  endfacet
  facet normal 0 1 0
    outer loop
      vertex -107 -9 250
      vertex -103.299 -9 253.75
      vertex -103.429 -9 253.266
    endloop
  endfacet
  facet normal 0 1 0
    outer loop
      vertex -107 -9 250
      vertex -103.429 -9 253.266
      vertex -103.5 -9 253
    endloop
  endfacet
  facet normal 0 1 0
    outer loop
      vertex -107 -9 250
      vertex -103.5 -9 253
      vertex -103.299 -9 252.25
    endloop
  endfacet
  facet normal 0 1 0
    outer loop
      vertex -103.299 -9 253.75
      vertex -107 -9 250
      vertex -107 -9 261
    endloop
  endfacet
  facet normal 0 1 0
    outer loop
      vertex -102.75 -9 251.701
      vertex -107 -9 250
      vertex -103.299 -9 252.25
    endloop
  endfacet
  facet normal 0 1 0
    outer loop
      vertex -102 -9 251.5
      vertex -107 -9 250
      vertex -102.75 -9 251.701
    endloop
  endfacet
  facet normal 0 1 0
    outer loop
      vertex -107 -9 250
      vertex -102 -9 251.5
      vertex -96 -9 250
    endloop
  endfacet
  facet normal 0 0 -1
    outer loop
      vertex -96 -21 250
      vertex -97.5 -15.5 250
      vertex -96 -9 250
    endloop
  endfacet
  facet normal 0 0 -1
    outer loop
      vertex -96 -21 250
      vertex -97.701 -16.25 250
      vertex -97.5 -15.5 250
    endloop
  endfacet
  facet normal 0 0 -1
    outer loop
      vertex -96 -21 250
      vertex -98.25 -16.799 250
      vertex -97.701 -16.25 250
    endloop
  endfacet
  facet normal 0 0 -1
    outer loop
      vertex -96 -21 250
      vertex -99 -17 250
      vertex -98.25 -16.799 250
    endloop
  endfacet
  facet normal 0 0 -1
    outer loop
      vertex -96 -21 250
      vertex -99.75 -16.799 250
      vertex -99 -17 250
    endloop
  endfacet
  facet normal 0 0 -1
    outer loop
      vertex -107 -21 250
      vertex -99.75 -16.799 250
      vertex -96 -21 250
    endloop
  endfacet
  facet normal -0 0 -1
    outer loop
      vertex -100.299 -16.25 250
      vertex -107 -21 250
      vertex -100.5 -15.5 250
    endloop
  endfacet
  facet normal -0 0 -1
    outer loop
      vertex -99.75 -16.799 250
      vertex -107 -21 250
      vertex -100.299 -16.25 250
    endloop
  endfacet
  facet normal 0 0 -1
    outer loop
      vertex -97.701 -14.75 250
      vertex -96 -9 250
      vertex -97.5 -15.5 250
    endloop
  endfacet
  facet normal 0 0 -1
    outer loop
      vertex -98.25 -14.201 250
      vertex -96 -9 250
      vertex -97.701 -14.75 250
    endloop
  endfacet
  facet normal 0 0 -1
    outer loop
      vertex -99 -14 250
      vertex -96 -9 250
      vertex -98.25 -14.201 250
    endloop
  endfacet
  facet normal 0 0 -1
    outer loop
      vertex -99.75 -14.201 250
      vertex -96 -9 250
      vertex -99 -14 250
    endloop
  endfacet
  facet normal 0 0 -1
    outer loop
      vertex -107 -9 250
      vertex -99.75 -14.201 250
      vertex -100.299 -14.75 250
    endloop
  endfacet
  facet normal 0 0 -1
    outer loop
      vertex -107 -9 250
      vertex -100.5 -15.5 250
      vertex -107 -21 250
    endloop
  endfacet
  facet normal 0 0 -1
    outer loop
      vertex -100.5 -15.5 250
      vertex -107 -9 250
      vertex -100.299 -14.75 250
    endloop
  endfacet
  facet normal 0 0 -1
    outer loop
      vertex -99.75 -14.201 250
      vertex -107 -9 250
      vertex -96 -9 250
    endloop
  endfacet
  facet normal 0 -1 0
    outer loop
      vertex -100.375 -21 255.815
      vertex -107 -21 261
      vertex -103.625 -21 255.815
    endloop
  endfacet
  facet normal 0 -1 0
    outer loop
      vertex -107 -21 261
      vertex -103.828 -21 255.463
      vertex -103.625 -21 255.815
    endloop
  endfacet
  facet normal 0 -1 0
    outer loop
      vertex -107 -21 261
      vertex -105.25 -21 253
      vertex -103.828 -21 255.463
    endloop
  endfacet
  facet normal 0 -1 0
    outer loop
      vertex -107 -21 250
      vertex -105.047 -21 252.648
      vertex -105.25 -21 253
    endloop
  endfacet
  facet normal 0 -1 -0
    outer loop
      vertex -103.625 -21 250.185
      vertex -107 -21 250
      vertex -100.375 -21 250.185
    endloop
  endfacet
  facet normal 0 -1 -0
    outer loop
      vertex -105.047 -21 252.648
      vertex -107 -21 250
      vertex -103.625 -21 250.185
    endloop
  endfacet
  facet normal 0 -1 0
    outer loop
      vertex -107 -21 250
      vertex -105.25 -21 253
      vertex -107 -21 261
    endloop
  endfacet
  facet normal 0 -1 0
    outer loop
      vertex -107 -21 261
      vertex -100.375 -21 255.815
      vertex -96 -21 261
    endloop
  endfacet
  facet normal 0 -1 0
    outer loop
      vertex -98.75 -21 253
      vertex -96 -21 261
      vertex -100.375 -21 255.815
    endloop
  endfacet
  facet normal 0 -1 0
    outer loop
      vertex -98.75 -21 253
      vertex -96 -21 250
      vertex -96 -21 261
    endloop
  endfacet
  facet normal 0 -1 0
    outer loop
      vertex -100.375 -21 250.185
      vertex -96 -21 250
      vertex -98.75 -21 253
    endloop
  endfacet
  facet normal 0 -1 0
    outer loop
      vertex -96 -21 250
      vertex -100.375 -21 250.185
      vertex -107 -21 250
    endloop
  endfacet
  facet normal 1 0 0
    outer loop
      vertex -96 -11.8 256
      vertex -96 -9 261
      vertex -96 -11.8 259
    endloop
  endfacet
  facet normal 1 -0 0
    outer loop
      vertex -96 -21 261
      vertex -96 -11.8 259
      vertex -96 -9 261
    endloop
  endfacet
  facet normal 1 0 0
    outer loop
      vertex -96 -19.2 259
      vertex -96 -21 261
      vertex -96 -19.2 256
    endloop
  endfacet
  facet normal 1 0 0
    outer loop
      vertex -96 -11.8 259
      vertex -96 -21 261
      vertex -96 -19.2 259
    endloop
  endfacet
  facet normal 1 0 0
    outer loop
      vertex -96 -9 261
      vertex -96 -11.8 256
      vertex -96 -9 250
    endloop
  endfacet
  facet normal 1 0 0
    outer loop
      vertex -96 -21 250
      vertex -96 -11.8 256
      vertex -96 -19.2 256
    endloop
  endfacet
  facet normal 1 0 0
    outer loop
      vertex -96 -11.8 256
      vertex -96 -21 250
      vertex -96 -9 250
    endloop
  endfacet
  facet normal 1 0 0
    outer loop
      vertex -96 -21 250
      vertex -96 -19.2 256
      vertex -96 -21 261
    endloop
  endfacet
  facet normal -0.965927 0 0.258815
    outer loop
      vertex -100.701 17 252.25
      vertex -100.5 15.5 253
      vertex -100.5 17 253
    endloop
  endfacet
  facet normal -0.965927 0 0.258815
    outer loop
      vertex -100.701 9 252.25
      vertex -100.5 15.5 253
      vertex -100.701 17 252.25
    endloop
  endfacet
  facet normal -0.965927 0 0.258815
    outer loop
      vertex -100.5 15.5 253
      vertex -100.701 9 252.25
      vertex -100.5 9 253
    endloop
  endfacet
  facet normal -0.965927 0 0.258815
    outer loop
      vertex -100.701 -9 252.25
      vertex -100.5 -15.5 253
      vertex -100.5 -9 253
    endloop
  endfacet
  facet normal -0.965927 0 0.258815
    outer loop
      vertex -100.701 -17.5 252.25
      vertex -100.5 -15.5 253
      vertex -100.701 -9 252.25
    endloop
  endfacet
  facet normal -0.965927 0 0.258815
    outer loop
      vertex -100.5 -15.5 253
      vertex -100.701 -17.5 252.25
      vertex -100.5 -17.5 253
    endloop
  endfacet
  facet normal 0.258815 0 0.965927
    outer loop
      vertex -102.75 17 251.701
      vertex -102 9 251.5
      vertex -102 17 251.5
    endloop
  endfacet
  facet normal 0.258815 0 0.965927
    outer loop
      vertex -102 9 251.5
      vertex -102.75 17 251.701
      vertex -102.75 9 251.701
    endloop
  endfacet
  facet normal 0.258815 0 0.965927
    outer loop
      vertex -102.75 -9 251.701
      vertex -102 -17.5 251.5
      vertex -102 -9 251.5
    endloop
  endfacet
  facet normal 0.258815 0 0.965927
    outer loop
      vertex -102 -17.5 251.5
      vertex -102.75 -9 251.701
      vertex -102.75 -17.5 251.701
    endloop
  endfacet
  facet normal -0.707107 0 0.707107
    outer loop
      vertex -101.25 9 251.701
      vertex -100.701 17 252.25
      vertex -101.25 17 251.701
    endloop
  endfacet
  facet normal -0.707107 0 0.707107
    outer loop
      vertex -100.701 17 252.25
      vertex -101.25 9 251.701
      vertex -100.701 9 252.25
    endloop
  endfacet
  facet normal -0.707107 0 0.707107
    outer loop
      vertex -101.25 -17.5 251.701
      vertex -100.701 -9 252.25
      vertex -101.25 -9 251.701
    endloop
  endfacet
  facet normal -0.707107 0 0.707107
    outer loop
      vertex -100.701 -9 252.25
      vertex -101.25 -17.5 251.701
      vertex -100.701 -17.5 252.25
    endloop
  endfacet
  facet normal 0.707107 -6.7435e-07 -0.707107
    outer loop
      vertex -103.044 9 254.005
      vertex -103.299 17 253.75
      vertex -103.088 17 253.961
    endloop
  endfacet
  facet normal 0.707117 0 -0.707096
    outer loop
      vertex -103.299 17 253.75
      vertex -103.044 9 254.005
      vertex -103.299 9 253.75
    endloop
  endfacet
  facet normal 0.707099 -7.1833e-07 -0.707114
    outer loop
      vertex -102.898 -17.5 254.151
      vertex -103.299 -9 253.75
      vertex -102.945 -9 254.104
    endloop
  endfacet
  facet normal 0.707107 0 -0.707107
    outer loop
      vertex -103.299 -9 253.75
      vertex -102.898 -17.5 254.151
      vertex -103.299 -17.5 253.75
    endloop
  endfacet
  facet normal -0.258815 0 -0.965927
    outer loop
      vertex -102 9 254.5
      vertex -101.25 17 254.299
      vertex -101.25 9 254.299
    endloop
  endfacet
  facet normal -0.258815 0 -0.965927
    outer loop
      vertex -101.25 17 254.299
      vertex -102 9 254.5
      vertex -102 17 254.5
    endloop
  endfacet
  facet normal -0.258815 0 -0.965927
    outer loop
      vertex -102 -17.5 254.5
      vertex -101.25 -9 254.299
      vertex -101.25 -17.5 254.299
    endloop
  endfacet
  facet normal -0.258815 0 -0.965927
    outer loop
      vertex -101.25 -9 254.299
      vertex -102 -17.5 254.5
      vertex -102 -9 254.5
    endloop
  endfacet
  facet normal -0.258815 0 0.965927
    outer loop
      vertex -102 17 251.5
      vertex -101.25 9 251.701
      vertex -101.25 17 251.701
    endloop
  endfacet
  facet normal -0.258815 0 0.965927
    outer loop
      vertex -101.25 9 251.701
      vertex -102 17 251.5
      vertex -102 9 251.5
    endloop
  endfacet
  facet normal -0.258815 0 0.965927
    outer loop
      vertex -102 -9 251.5
      vertex -101.25 -17.5 251.701
      vertex -101.25 -9 251.701
    endloop
  endfacet
  facet normal -0.258815 0 0.965927
    outer loop
      vertex -101.25 -17.5 251.701
      vertex -102 -9 251.5
      vertex -102 -17.5 251.5
    endloop
  endfacet
  facet normal 0.258815 0 -0.965927
    outer loop
      vertex -102.75 9 254.299
      vertex -102 17 254.5
      vertex -102 9 254.5
    endloop
  endfacet
  facet normal 0.258815 0 -0.965927
    outer loop
      vertex -102 17 254.5
      vertex -102.75 9 254.299
      vertex -102.75 17 254.299
    endloop
  endfacet
  facet normal 0.258815 0 -0.965927
    outer loop
      vertex -102.75 -17.5 254.299
      vertex -102 -9 254.5
      vertex -102 -17.5 254.5
    endloop
  endfacet
  facet normal 0.258815 0 -0.965927
    outer loop
      vertex -102 -9 254.5
      vertex -102.75 -17.5 254.299
      vertex -102.75 -9 254.299
    endloop
  endfacet
  facet normal 0.707107 0 -0.707107
    outer loop
      vertex -102.75 9 254.299
      vertex -103.088 17 253.961
      vertex -102.75 17 254.299
    endloop
  endfacet
  facet normal 0.707098 -7.75194e-07 -0.707116
    outer loop
      vertex -103.088 17 253.961
      vertex -102.75 9 254.299
      vertex -103.044 9 254.005
    endloop
  endfacet
  facet normal 0.707121 0 -0.707093
    outer loop
      vertex -102.75 -17.5 254.299
      vertex -102.945 -9 254.104
      vertex -102.75 -9 254.299
    endloop
  endfacet
  facet normal 0.707107 -6.34682e-07 -0.707107
    outer loop
      vertex -102.945 -9 254.104
      vertex -102.75 -17.5 254.299
      vertex -102.898 -17.5 254.151
    endloop
  endfacet
  facet normal -0.707107 0 -0.707107
    outer loop
      vertex -100.701 9 253.75
      vertex -101.25 17 254.299
      vertex -100.701 17 253.75
    endloop
  endfacet
  facet normal -0.707107 -0 -0.707107
    outer loop
      vertex -101.25 17 254.299
      vertex -100.701 9 253.75
      vertex -101.25 9 254.299
    endloop
  endfacet
  facet normal -0.707107 0 -0.707107
    outer loop
      vertex -100.701 -17.5 253.75
      vertex -101.25 -9 254.299
      vertex -100.701 -9 253.75
    endloop
  endfacet
  facet normal -0.707107 -0 -0.707107
    outer loop
      vertex -101.25 -9 254.299
      vertex -100.701 -17.5 253.75
      vertex -101.25 -17.5 254.299
    endloop
  endfacet
  facet normal -0.965927 0 -0.258815
    outer loop
      vertex -100.5 15.5 253
      vertex -100.701 17 253.75
      vertex -100.5 17 253
    endloop
  endfacet
  facet normal -0.965927 0 -0.258815
    outer loop
      vertex -100.701 9 253.75
      vertex -100.5 15.5 253
      vertex -100.5 9 253
    endloop
  endfacet
  facet normal -0.965927 0 -0.258815
    outer loop
      vertex -100.5 15.5 253
      vertex -100.701 9 253.75
      vertex -100.701 17 253.75
    endloop
  endfacet
  facet normal -0.965927 0 -0.258815
    outer loop
      vertex -100.5 -15.5 253
      vertex -100.701 -9 253.75
      vertex -100.5 -9 253
    endloop
  endfacet
  facet normal -0.965927 0 -0.258815
    outer loop
      vertex -100.701 -17.5 253.75
      vertex -100.5 -15.5 253
      vertex -100.5 -17.5 253
    endloop
  endfacet
  facet normal -0.965927 0 -0.258815
    outer loop
      vertex -100.5 -15.5 253
      vertex -100.701 -17.5 253.75
      vertex -100.701 -9 253.75
    endloop
  endfacet
  facet normal 0.707107 -0 0.707107
    outer loop
      vertex -103.299 9 252.25
      vertex -102.75 17 251.701
      vertex -103.299 17 252.25
    endloop
  endfacet
  facet normal 0.707107 0 0.707107
    outer loop
      vertex -102.75 17 251.701
      vertex -103.299 9 252.25
      vertex -102.75 9 251.701
    endloop
  endfacet
  facet normal 0.707107 -0 0.707107
    outer loop
      vertex -103.299 -17.5 252.25
      vertex -102.75 -9 251.701
      vertex -103.299 -9 252.25
    endloop
  endfacet
  facet normal 0.707107 0 0.707107
    outer loop
      vertex -102.75 -9 251.701
      vertex -103.299 -17.5 252.25
      vertex -102.75 -17.5 251.701
    endloop
  endfacet
  facet normal 0.965926 1.24092e-07 -0.258817
    outer loop
      vertex -103.392 9 253.401
      vertex -103.5 17 253
      vertex -103.376 17 253.461
    endloop
  endfacet
  facet normal 0.965926 0 -0.258819
    outer loop
      vertex -103.5 17 253
      vertex -103.392 9 253.401
      vertex -103.5 9 253
    endloop
  endfacet
  facet normal 0.965925 8.29775e-09 -0.258822
    outer loop
      vertex -103.446 -17.5 253.202
      vertex -103.5 -9 253
      vertex -103.429 -9 253.266
    endloop
  endfacet
  facet normal 0.965925 0 -0.258822
    outer loop
      vertex -103.5 -9 253
      vertex -103.446 -17.5 253.202
      vertex -103.5 -17.5 253
    endloop
  endfacet
  facet normal 0.965927 -0 0.258815
    outer loop
      vertex -103.5 9 253
      vertex -103.299 17 252.25
      vertex -103.5 17 253
    endloop
  endfacet
  facet normal 0.965927 0 0.258815
    outer loop
      vertex -103.299 17 252.25
      vertex -103.5 9 253
      vertex -103.299 9 252.25
    endloop
  endfacet
  facet normal 0.965927 -0 0.258815
    outer loop
      vertex -103.5 -17.5 253
      vertex -103.299 -9 252.25
      vertex -103.5 -9 253
    endloop
  endfacet
  facet normal 0.965927 0 0.258815
    outer loop
      vertex -103.299 -9 252.25
      vertex -103.5 -17.5 253
      vertex -103.299 -17.5 252.25
    endloop
  endfacet
  facet normal 0.965928 0 -0.258811
    outer loop
      vertex -103.299 9 253.75
      vertex -103.376 17 253.461
      vertex -103.299 17 253.75
    endloop
  endfacet
  facet normal 0.965928 6.22289e-08 -0.258809
    outer loop
      vertex -103.376 17 253.461
      vertex -103.299 9 253.75
      vertex -103.392 9 253.401
    endloop
  endfacet
  facet normal 0.965928 0 -0.258811
    outer loop
      vertex -103.299 -17.5 253.75
      vertex -103.429 -9 253.266
      vertex -103.299 -9 253.75
    endloop
  endfacet
  facet normal 0.965928 -7.1885e-08 -0.258812
    outer loop
      vertex -103.429 -9 253.266
      vertex -103.299 -17.5 253.75
      vertex -103.446 -17.5 253.202
    endloop
  endfacet
  facet normal -0.866025 0 0.500001
    outer loop
      vertex -100.375 -21 250.185
      vertex -98.75 -17.5 253
      vertex -100.375 -17.5 250.185
    endloop
  endfacet
  facet normal -0.866025 0 0.500001
    outer loop
      vertex -98.75 -17.5 253
      vertex -100.375 -21 250.185
      vertex -98.75 -21 253
    endloop
  endfacet
  facet normal -0 0 1
    outer loop
      vertex -103.625 -17.5 250.185
      vertex -100.375 -21 250.185
      vertex -100.375 -17.5 250.185
    endloop
  endfacet
  facet normal 0 0 1
    outer loop
      vertex -100.375 -21 250.185
      vertex -103.625 -17.5 250.185
      vertex -103.625 -21 250.185
    endloop
  endfacet
  facet normal 0.866025 0 0.500001
    outer loop
      vertex -105.047 -21 252.648
      vertex -105.25 -17.5 253
      vertex -105.25 -21 253
    endloop
  endfacet
  facet normal 0.866025 0 0.500001
    outer loop
      vertex -105.25 -17.5 253
      vertex -105.047 -21 252.648
      vertex -103.625 -17.5 250.185
    endloop
  endfacet
  facet normal 0.866025 -0 0.500001
    outer loop
      vertex -103.625 -21 250.185
      vertex -103.625 -17.5 250.185
      vertex -105.047 -21 252.648
    endloop
  endfacet
  facet normal 0 -1 0
    outer loop
      vertex -103.625 -17.5 255.815
      vertex -102 -17.5 254.5
      vertex -100.375 -17.5 255.815
    endloop
  endfacet
  facet normal 0 -1 0
    outer loop
      vertex -103.625 -17.5 255.815
      vertex -102.75 -17.5 254.299
      vertex -102 -17.5 254.5
    endloop
  endfacet
  facet normal 0 -1 0
    outer loop
      vertex -103.625 -17.5 255.815
      vertex -102.898 -17.5 254.151
      vertex -102.75 -17.5 254.299
    endloop
  endfacet
  facet normal 0 -1 0
    outer loop
      vertex -103.625 -17.5 255.815
      vertex -103.299 -17.5 253.75
      vertex -102.898 -17.5 254.151
    endloop
  endfacet
  facet normal 0 -1 0
    outer loop
      vertex -105.25 -17.5 253
      vertex -103.299 -17.5 253.75
      vertex -103.625 -17.5 255.815
    endloop
  endfacet
  facet normal 0 -1 0
    outer loop
      vertex -103.299 -17.5 253.75
      vertex -105.25 -17.5 253
      vertex -103.446 -17.5 253.202
    endloop
  endfacet
  facet normal 0 -1 0
    outer loop
      vertex -105.25 -17.5 253
      vertex -103.5 -17.5 253
      vertex -103.446 -17.5 253.202
    endloop
  endfacet
  facet normal 0 -1 0
    outer loop
      vertex -105.25 -17.5 253
      vertex -103.299 -17.5 252.25
      vertex -103.5 -17.5 253
    endloop
  endfacet
  facet normal 0 -1 0
    outer loop
      vertex -103.625 -17.5 250.185
      vertex -103.299 -17.5 252.25
      vertex -105.25 -17.5 253
    endloop
  endfacet
  facet normal 0 -1 -0
    outer loop
      vertex -102.75 -17.5 251.701
      vertex -103.625 -17.5 250.185
      vertex -102 -17.5 251.5
    endloop
  endfacet
  facet normal 0 -1 -0
    outer loop
      vertex -103.299 -17.5 252.25
      vertex -103.625 -17.5 250.185
      vertex -102.75 -17.5 251.701
    endloop
  endfacet
  facet normal 0 -1 0
    outer loop
      vertex -101.25 -17.5 254.299
      vertex -100.375 -17.5 255.815
      vertex -102 -17.5 254.5
    endloop
  endfacet
  facet normal 0 -1 0
    outer loop
      vertex -100.701 -17.5 253.75
      vertex -100.375 -17.5 255.815
      vertex -101.25 -17.5 254.299
    endloop
  endfacet
  facet normal 0 -1 0
    outer loop
      vertex -98.75 -17.5 253
      vertex -100.701 -17.5 253.75
      vertex -100.5 -17.5 253
    endloop
  endfacet
  facet normal 0 -1 0
    outer loop
      vertex -100.701 -17.5 253.75
      vertex -98.75 -17.5 253
      vertex -100.375 -17.5 255.815
    endloop
  endfacet
  facet normal 0 -1 0
    outer loop
      vertex -100.701 -17.5 252.25
      vertex -98.75 -17.5 253
      vertex -100.5 -17.5 253
    endloop
  endfacet
  facet normal 0 -1 0
    outer loop
      vertex -100.375 -17.5 250.185
      vertex -100.701 -17.5 252.25
      vertex -101.25 -17.5 251.701
    endloop
  endfacet
  facet normal 0 -1 0
    outer loop
      vertex -100.375 -17.5 250.185
      vertex -102 -17.5 251.5
      vertex -103.625 -17.5 250.185
    endloop
  endfacet
  facet normal 0 -1 0
    outer loop
      vertex -102 -17.5 251.5
      vertex -100.375 -17.5 250.185
      vertex -101.25 -17.5 251.701
    endloop
  endfacet
  facet normal 0 -1 0
    outer loop
      vertex -100.701 -17.5 252.25
      vertex -100.375 -17.5 250.185
      vertex -98.75 -17.5 253
    endloop
  endfacet
  facet normal 0.866025 0 -0.500001
    outer loop
      vertex -103.828 -21 255.463
      vertex -103.625 -17.5 255.815
      vertex -103.625 -21 255.815
    endloop
  endfacet
  facet normal 0.866025 0 -0.500001
    outer loop
      vertex -103.625 -17.5 255.815
      vertex -103.828 -21 255.463
      vertex -105.25 -17.5 253
    endloop
  endfacet
  facet normal 0 0 -1
    outer loop
      vertex -103.625 -21 255.815
      vertex -100.375 -17.5 255.815
      vertex -100.375 -21 255.815
    endloop
  endfacet
  facet normal -0 0 -1
    outer loop
      vertex -100.375 -17.5 255.815
      vertex -103.625 -21 255.815
      vertex -103.625 -17.5 255.815
    endloop
  endfacet
  facet normal 0.866025 0 -0.500001
    outer loop
      vertex -105.25 -17.5 253
      vertex -103.828 -21 255.463
      vertex -105.25 -21 253
    endloop
  endfacet
  facet normal -0.866025 0 -0.500001
    outer loop
      vertex -98.75 -21 253
      vertex -100.375 -17.5 255.815
      vertex -98.75 -17.5 253
    endloop
  endfacet
  facet normal -0.866025 -0 -0.500001
    outer loop
      vertex -100.375 -17.5 255.815
      vertex -98.75 -21 253
      vertex -100.375 -21 255.815
    endloop
  endfacet
  facet normal -0.866025 0 0.500001
    outer loop
      vertex -99 17 252.567
      vertex -100.375 21 250.185
      vertex -100.375 17 250.185
    endloop
  endfacet
  facet normal -0.866025 -2.93439e-07 0.500001
    outer loop
      vertex -100.375 21 250.185
      vertex -99 17 252.567
      vertex -98.75 21 253
    endloop
  endfacet
  facet normal -0.866026 0 0.499999
    outer loop
      vertex -98.75 21 253
      vertex -99 17 252.567
      vertex -98.75 17 253
    endloop
  endfacet
  facet normal -0 0 1
    outer loop
      vertex -103.625 21 250.185
      vertex -100.375 17 250.185
      vertex -100.375 21 250.185
    endloop
  endfacet
  facet normal 0 0 1
    outer loop
      vertex -100.375 17 250.185
      vertex -103.625 21 250.185
      vertex -103.625 17 250.185
    endloop
  endfacet
  facet normal 0.866025 0 0.500001
    outer loop
      vertex -103.625 21 250.185
      vertex -105.25 21 253
      vertex -105.25 17 253
    endloop
  endfacet
  facet normal 0.866025 -0 0.500001
    outer loop
      vertex -103.625 17 250.185
      vertex -103.625 21 250.185
      vertex -105.25 17 253
    endloop
  endfacet
  facet normal 0.866025 0 -0.500001
    outer loop
      vertex -103.625 21 255.815
      vertex -103.625 17 255.815
      vertex -105.25 21 253
    endloop
  endfacet
  facet normal 0 0 -1
    outer loop
      vertex -103.625 17 255.815
      vertex -100.375 21 255.815
      vertex -100.375 17 255.815
    endloop
  endfacet
  facet normal -0 0 -1
    outer loop
      vertex -100.375 21 255.815
      vertex -103.625 17 255.815
      vertex -103.625 21 255.815
    endloop
  endfacet
  facet normal 0 1 0
    outer loop
      vertex -100.375 17 255.815
      vertex -102 17 254.5
      vertex -103.625 17 255.815
    endloop
  endfacet
  facet normal 0 1 0
    outer loop
      vertex -100.375 17 255.815
      vertex -101.25 17 254.299
      vertex -102 17 254.5
    endloop
  endfacet
  facet normal 0 1 0
    outer loop
      vertex -100.375 17 255.815
      vertex -100.701 17 253.75
      vertex -101.25 17 254.299
    endloop
  endfacet
  facet normal 0 1 0
    outer loop
      vertex -99 17 253.433
      vertex -100.701 17 253.75
      vertex -100.375 17 255.815
    endloop
  endfacet
  facet normal 0 1 0
    outer loop
      vertex -99 17 253.433
      vertex -100.5 17 253
      vertex -100.701 17 253.75
    endloop
  endfacet
  facet normal 0 1 -0
    outer loop
      vertex -99 17 252.567
      vertex -100.5 17 253
      vertex -99 17 253.433
    endloop
  endfacet
  facet normal 0 1 0
    outer loop
      vertex -99 17 252.567
      vertex -100.701 17 252.25
      vertex -100.5 17 253
    endloop
  endfacet
  facet normal 0 1 -0
    outer loop
      vertex -100.375 17 250.185
      vertex -100.701 17 252.25
      vertex -99 17 252.567
    endloop
  endfacet
  facet normal 0 1 0
    outer loop
      vertex -101.25 17 251.701
      vertex -100.375 17 250.185
      vertex -102 17 251.5
    endloop
  endfacet
  facet normal 0 1 0
    outer loop
      vertex -100.701 17 252.25
      vertex -100.375 17 250.185
      vertex -101.25 17 251.701
    endloop
  endfacet
  facet normal 0 1 -0
    outer loop
      vertex -102.75 17 254.299
      vertex -103.625 17 255.815
      vertex -102 17 254.5
    endloop
  endfacet
  facet normal 0 1 -0
    outer loop
      vertex -103.088 17 253.961
      vertex -103.625 17 255.815
      vertex -102.75 17 254.299
    endloop
  endfacet
  facet normal 0 1 -0
    outer loop
      vertex -103.299 17 253.75
      vertex -103.625 17 255.815
      vertex -103.088 17 253.961
    endloop
  endfacet
  facet normal 0 1 0
    outer loop
      vertex -105.25 17 253
      vertex -103.299 17 253.75
      vertex -103.376 17 253.461
    endloop
  endfacet
  facet normal 0 1 0
    outer loop
      vertex -105.25 17 253
      vertex -103.376 17 253.461
      vertex -103.5 17 253
    endloop
  endfacet
  facet normal 0 1 0
    outer loop
      vertex -103.299 17 253.75
      vertex -105.25 17 253
      vertex -103.625 17 255.815
    endloop
  endfacet
  facet normal 0 1 0
    outer loop
      vertex -103.299 17 252.25
      vertex -105.25 17 253
      vertex -103.5 17 253
    endloop
  endfacet
  facet normal 0 1 0
    outer loop
      vertex -103.625 17 250.185
      vertex -103.299 17 252.25
      vertex -102.75 17 251.701
    endloop
  endfacet
  facet normal 0 1 0
    outer loop
      vertex -103.625 17 250.185
      vertex -102 17 251.5
      vertex -100.375 17 250.185
    endloop
  endfacet
  facet normal 0 1 0
    outer loop
      vertex -102 17 251.5
      vertex -103.625 17 250.185
      vertex -102.75 17 251.701
    endloop
  endfacet
  facet normal 0 1 0
    outer loop
      vertex -103.299 17 252.25
      vertex -103.625 17 250.185
      vertex -105.25 17 253
    endloop
  endfacet
  facet normal 0 1 0
    outer loop
      vertex -99 17 253.433
      vertex -98.75 17 253
      vertex -99 17 252.567
    endloop
  endfacet
  facet normal 0.866025 0 -0.500001
    outer loop
      vertex -105.25 21 253
      vertex -103.625 17 255.815
      vertex -105.25 17 253
    endloop
  endfacet
  facet normal -0.866026 0 -0.499999
    outer loop
      vertex -99 17 253.433
      vertex -98.75 21 253
      vertex -98.75 17 253
    endloop
  endfacet
  facet normal -0.866025 -2.93439e-07 -0.500001
    outer loop
      vertex -98.75 21 253
      vertex -99 17 253.433
      vertex -100.375 21 255.815
    endloop
  endfacet
  facet normal -0.866025 -0 -0.500001
    outer loop
      vertex -100.375 21 255.815
      vertex -99 17 253.433
      vertex -100.375 17 255.815
    endloop
  endfacet
  facet normal 0.5 -0.866025 0
    outer loop
      vertex -102.204 -13.65 256
      vertex -99 -11.8 259
      vertex -102.204 -13.65 259
    endloop
  endfacet
  facet normal 0.5 -0.866025 0
    outer loop
      vertex -99 -11.8 259
      vertex -102.204 -13.65 256
      vertex -99 -11.8 256
    endloop
  endfacet
  facet normal 0 0 1
    outer loop
      vertex -96 -11.8 256
      vertex -97.5 -15.5 256
      vertex -96 -19.2 256
    endloop
  endfacet
  facet normal 0 0 1
    outer loop
      vertex -96 -11.8 256
      vertex -97.701 -14.75 256
      vertex -97.5 -15.5 256
    endloop
  endfacet
  facet normal 0 0 1
    outer loop
      vertex -96 -11.8 256
      vertex -98.25 -14.201 256
      vertex -97.701 -14.75 256
    endloop
  endfacet
  facet normal -0 0 1
    outer loop
      vertex -99 -11.8 256
      vertex -98.25 -14.201 256
      vertex -96 -11.8 256
    endloop
  endfacet
  facet normal 0 0 1
    outer loop
      vertex -99 -11.8 256
      vertex -99 -14 256
      vertex -98.25 -14.201 256
    endloop
  endfacet
  facet normal 0 0 1
    outer loop
      vertex -99 -11.8 256
      vertex -99.75 -14.201 256
      vertex -99 -14 256
    endloop
  endfacet
  facet normal -0 0 1
    outer loop
      vertex -102.204 -13.65 256
      vertex -99.75 -14.201 256
      vertex -99 -11.8 256
    endloop
  endfacet
  facet normal 0 0 1
    outer loop
      vertex -100.299 -14.75 256
      vertex -102.204 -13.65 256
      vertex -100.5 -15.5 256
    endloop
  endfacet
  facet normal 0 0 1
    outer loop
      vertex -99.75 -14.201 256
      vertex -102.204 -13.65 256
      vertex -100.299 -14.75 256
    endloop
  endfacet
  facet normal -0 0 1
    outer loop
      vertex -97.701 -16.25 256
      vertex -96 -19.2 256
      vertex -97.5 -15.5 256
    endloop
  endfacet
  facet normal -0 0 1
    outer loop
      vertex -98.25 -16.799 256
      vertex -96 -19.2 256
      vertex -97.701 -16.25 256
    endloop
  endfacet
  facet normal 0 0 1
    outer loop
      vertex -99 -19.2 256
      vertex -98.25 -16.799 256
      vertex -99 -17 256
    endloop
  endfacet
  facet normal 0 0 1
    outer loop
      vertex -98.25 -16.799 256
      vertex -99 -19.2 256
      vertex -96 -19.2 256
    endloop
  endfacet
  facet normal 0 0 1
    outer loop
      vertex -99.75 -16.799 256
      vertex -99 -19.2 256
      vertex -99 -17 256
    endloop
  endfacet
  facet normal 0 0 1
    outer loop
      vertex -102.204 -17.35 256
      vertex -99.75 -16.799 256
      vertex -100.299 -16.25 256
    endloop
  endfacet
  facet normal 0 0 1
    outer loop
      vertex -102.204 -17.35 256
      vertex -100.5 -15.5 256
      vertex -102.204 -13.65 256
    endloop
  endfacet
  facet normal 0 0 1
    outer loop
      vertex -100.5 -15.5 256
      vertex -102.204 -17.35 256
      vertex -100.299 -16.25 256
    endloop
  endfacet
  facet normal 0 0 1
    outer loop
      vertex -99.75 -16.799 256
      vertex -102.204 -17.35 256
      vertex -99 -19.2 256
    endloop
  endfacet
  facet normal 1 -0 0
    outer loop
      vertex -102.204 -17.35 259
      vertex -102.204 -13.65 256
      vertex -102.204 -13.65 259
    endloop
  endfacet
  facet normal 1 0 0
    outer loop
      vertex -102.204 -13.65 256
      vertex -102.204 -17.35 259
      vertex -102.204 -17.35 256
    endloop
  endfacet
  facet normal 0 1 -0
    outer loop
      vertex -96 -19.2 256
      vertex -99 -19.2 259
      vertex -96 -19.2 259
    endloop
  endfacet
  facet normal 0 1 0
    outer loop
      vertex -99 -19.2 259
      vertex -96 -19.2 256
      vertex -99 -19.2 256
    endloop
  endfacet
  facet normal 0 -1 0
    outer loop
      vertex -99 -11.8 256
      vertex -96 -11.8 259
      vertex -99 -11.8 259
    endloop
  endfacet
  facet normal 0 -1 -0
    outer loop
      vertex -96 -11.8 259
      vertex -99 -11.8 256
      vertex -96 -11.8 256
    endloop
  endfacet
  facet normal 0.5 0.866025 -0
    outer loop
      vertex -99 -19.2 256
      vertex -102.204 -17.35 259
      vertex -99 -19.2 259
    endloop
  endfacet
  facet normal 0.5 0.866025 0
    outer loop
      vertex -102.204 -17.35 259
      vertex -99 -19.2 256
      vertex -102.204 -17.35 256
    endloop
  endfacet
  facet normal 0 0 -1
    outer loop
      vertex -96 -19.2 259
      vertex -97.5 -15.5 259
      vertex -96 -11.8 259
    endloop
  endfacet
  facet normal 0 0 -1
    outer loop
      vertex -96 -19.2 259
      vertex -97.701 -16.25 259
      vertex -97.5 -15.5 259
    endloop
  endfacet
  facet normal 0 0 -1
    outer loop
      vertex -96 -19.2 259
      vertex -98.25 -16.799 259
      vertex -97.701 -16.25 259
    endloop
  endfacet
  facet normal 0 0 -1
    outer loop
      vertex -99 -19.2 259
      vertex -98.25 -16.799 259
      vertex -96 -19.2 259
    endloop
  endfacet
  facet normal 0 0 -1
    outer loop
      vertex -99 -19.2 259
      vertex -99 -17 259
      vertex -98.25 -16.799 259
    endloop
  endfacet
  facet normal 0 0 -1
    outer loop
      vertex -99 -19.2 259
      vertex -99.75 -16.799 259
      vertex -99 -17 259
    endloop
  endfacet
  facet normal 0 0 -1
    outer loop
      vertex -102.204 -17.35 259
      vertex -99.75 -16.799 259
      vertex -99 -19.2 259
    endloop
  endfacet
  facet normal -0 0 -1
    outer loop
      vertex -100.299 -16.25 259
      vertex -102.204 -17.35 259
      vertex -100.5 -15.5 259
    endloop
  endfacet
  facet normal -0 0 -1
    outer loop
      vertex -99.75 -16.799 259
      vertex -102.204 -17.35 259
      vertex -100.299 -16.25 259
    endloop
  endfacet
  facet normal 0 0 -1
    outer loop
      vertex -97.701 -14.75 259
      vertex -96 -11.8 259
      vertex -97.5 -15.5 259
    endloop
  endfacet
  facet normal 0 0 -1
    outer loop
      vertex -98.25 -14.201 259
      vertex -96 -11.8 259
      vertex -97.701 -14.75 259
    endloop
  endfacet
  facet normal 0 0 -1
    outer loop
      vertex -99 -11.8 259
      vertex -98.25 -14.201 259
      vertex -99 -14 259
    endloop
  endfacet
  facet normal 0 0 -1
    outer loop
      vertex -98.25 -14.201 259
      vertex -99 -11.8 259
      vertex -96 -11.8 259
    endloop
  endfacet
  facet normal 0 0 -1
    outer loop
      vertex -99.75 -14.201 259
      vertex -99 -11.8 259
      vertex -99 -14 259
    endloop
  endfacet
  facet normal 0 0 -1
    outer loop
      vertex -102.204 -13.65 259
      vertex -99.75 -14.201 259
      vertex -100.299 -14.75 259
    endloop
  endfacet
  facet normal 0 0 -1
    outer loop
      vertex -102.204 -13.65 259
      vertex -100.5 -15.5 259
      vertex -102.204 -17.35 259
    endloop
  endfacet
  facet normal 0 0 -1
    outer loop
      vertex -100.5 -15.5 259
      vertex -102.204 -13.65 259
      vertex -100.299 -14.75 259
    endloop
  endfacet
  facet normal 0 0 -1
    outer loop
      vertex -99.75 -14.201 259
      vertex -102.204 -13.65 259
      vertex -99 -11.8 259
    endloop
  endfacet
  facet normal -0.965927 -0.258815 0
    outer loop
      vertex -97.5 -15.5 250
      vertex -97.701 -14.75 256
      vertex -97.701 -14.75 250
    endloop
  endfacet
  facet normal -0.965927 -0.258815 0
    outer loop
      vertex -97.701 -14.75 256
      vertex -97.5 -15.5 250
      vertex -97.5 -15.5 256
    endloop
  endfacet
  facet normal -0.965927 -0.258815 0
    outer loop
      vertex -97.5 -15.5 259
      vertex -97.701 -14.75 261
      vertex -97.701 -14.75 259
    endloop
  endfacet
  facet normal -0.965927 -0.258815 0
    outer loop
      vertex -97.701 -14.75 261
      vertex -97.5 -15.5 259
      vertex -97.5 -15.5 261
    endloop
  endfacet
  facet normal 0.258819 -0.965926 0
    outer loop
      vertex -99.75 -14.201 250
      vertex -99 -14 256
      vertex -99.75 -14.201 256
    endloop
  endfacet
  facet normal 0.258819 -0.965926 0
    outer loop
      vertex -99 -14 256
      vertex -99.75 -14.201 250
      vertex -99 -14 250
    endloop
  endfacet
  facet normal 0.258819 -0.965926 0
    outer loop
      vertex -99.75 -14.201 259
      vertex -99 -14 261
      vertex -99.75 -14.201 261
    endloop
  endfacet
  facet normal 0.258819 -0.965926 0
    outer loop
      vertex -99 -14 261
      vertex -99.75 -14.201 259
      vertex -99 -14 259
    endloop
  endfacet
  facet normal 0.965927 0.258815 0
    outer loop
      vertex -100.299 -16.25 256
      vertex -100.5 -15.5 253
      vertex -100.5 -15.5 256
    endloop
  endfacet
  facet normal 0.965927 0.258815 -0
    outer loop
      vertex -100.299 -16.25 250
      vertex -100.5 -15.5 253
      vertex -100.299 -16.25 256
    endloop
  endfacet
  facet normal 0.965927 0.258815 0
    outer loop
      vertex -100.5 -15.5 253
      vertex -100.299 -16.25 250
      vertex -100.5 -15.5 250
    endloop
  endfacet
  facet normal 0.965927 0.258815 0
    outer loop
      vertex -100.299 -16.25 261
      vertex -100.5 -15.5 259
      vertex -100.5 -15.5 261
    endloop
  endfacet
  facet normal 0.965927 0.258815 0
    outer loop
      vertex -100.5 -15.5 259
      vertex -100.299 -16.25 261
      vertex -100.299 -16.25 259
    endloop
  endfacet
  facet normal 0.707104 -0.707109 0
    outer loop
      vertex -100.299 -14.75 250
      vertex -99.75 -14.201 256
      vertex -100.299 -14.75 256
    endloop
  endfacet
  facet normal 0.707104 -0.707109 0
    outer loop
      vertex -99.75 -14.201 256
      vertex -100.299 -14.75 250
      vertex -99.75 -14.201 250
    endloop
  endfacet
  facet normal 0.707104 -0.707109 0
    outer loop
      vertex -100.299 -14.75 259
      vertex -99.75 -14.201 261
      vertex -100.299 -14.75 261
    endloop
  endfacet
  facet normal 0.707104 -0.707109 0
    outer loop
      vertex -99.75 -14.201 261
      vertex -100.299 -14.75 259
      vertex -99.75 -14.201 259
    endloop
  endfacet
  facet normal -0.965927 0.258815 0
    outer loop
      vertex -97.701 -16.25 250
      vertex -97.5 -15.5 256
      vertex -97.5 -15.5 250
    endloop
  endfacet
  facet normal -0.965927 0.258815 0
    outer loop
      vertex -97.5 -15.5 256
      vertex -97.701 -16.25 250
      vertex -97.701 -16.25 256
    endloop
  endfacet
  facet normal -0.965927 0.258815 0
    outer loop
      vertex -97.701 -16.25 259
      vertex -97.5 -15.5 261
      vertex -97.5 -15.5 259
    endloop
  endfacet
  facet normal -0.965927 0.258815 0
    outer loop
      vertex -97.5 -15.5 261
      vertex -97.701 -16.25 259
      vertex -97.701 -16.25 261
    endloop
  endfacet
  facet normal -0.707104 0.707109 0
    outer loop
      vertex -97.701 -16.25 250
      vertex -98.25 -16.799 256
      vertex -97.701 -16.25 256
    endloop
  endfacet
  facet normal -0.707104 0.707109 0
    outer loop
      vertex -98.25 -16.799 256
      vertex -97.701 -16.25 250
      vertex -98.25 -16.799 250
    endloop
  endfacet
  facet normal -0.707104 0.707109 0
    outer loop
      vertex -97.701 -16.25 259
      vertex -98.25 -16.799 261
      vertex -97.701 -16.25 261
    endloop
  endfacet
  facet normal -0.707104 0.707109 0
    outer loop
      vertex -98.25 -16.799 261
      vertex -97.701 -16.25 259
      vertex -98.25 -16.799 259
    endloop
  endfacet
  facet normal -0.258819 0.965926 0
    outer loop
      vertex -98.25 -16.799 250
      vertex -99 -17 256
      vertex -98.25 -16.799 256
    endloop
  endfacet
  facet normal -0.258819 0.965926 0
    outer loop
      vertex -99 -17 256
      vertex -98.25 -16.799 250
      vertex -99 -17 250
    endloop
  endfacet
  facet normal -0.258819 0.965926 0
    outer loop
      vertex -98.25 -16.799 259
      vertex -99 -17 261
      vertex -98.25 -16.799 261
    endloop
  endfacet
  facet normal -0.258819 0.965926 0
    outer loop
      vertex -99 -17 261
      vertex -98.25 -16.799 259
      vertex -99 -17 259
    endloop
  endfacet
  facet normal 0.707104 0.707109 -0
    outer loop
      vertex -99.75 -16.799 250
      vertex -100.299 -16.25 256
      vertex -99.75 -16.799 256
    endloop
  endfacet
  facet normal 0.707104 0.707109 0
    outer loop
      vertex -100.299 -16.25 256
      vertex -99.75 -16.799 250
      vertex -100.299 -16.25 250
    endloop
  endfacet
  facet normal 0.707104 0.707109 -0
    outer loop
      vertex -99.75 -16.799 259
      vertex -100.299 -16.25 261
      vertex -99.75 -16.799 261
    endloop
  endfacet
  facet normal 0.707104 0.707109 0
    outer loop
      vertex -100.299 -16.25 261
      vertex -99.75 -16.799 259
      vertex -100.299 -16.25 259
    endloop
  endfacet
  facet normal -0.258819 -0.965926 0
    outer loop
      vertex -99 -14 250
      vertex -98.25 -14.201 256
      vertex -99 -14 256
    endloop
  endfacet
  facet normal -0.258819 -0.965926 -0
    outer loop
      vertex -98.25 -14.201 256
      vertex -99 -14 250
      vertex -98.25 -14.201 250
    endloop
  endfacet
  facet normal -0.258819 -0.965926 0
    outer loop
      vertex -99 -14 259
      vertex -98.25 -14.201 261
      vertex -99 -14 261
    endloop
  endfacet
  facet normal -0.258819 -0.965926 -0
    outer loop
      vertex -98.25 -14.201 261
      vertex -99 -14 259
      vertex -98.25 -14.201 259
    endloop
  endfacet
  facet normal -0.707104 -0.707109 0
    outer loop
      vertex -98.25 -14.201 250
      vertex -97.701 -14.75 256
      vertex -98.25 -14.201 256
    endloop
  endfacet
  facet normal -0.707104 -0.707109 -0
    outer loop
      vertex -97.701 -14.75 256
      vertex -98.25 -14.201 250
      vertex -97.701 -14.75 250
    endloop
  endfacet
  facet normal -0.707104 -0.707109 0
    outer loop
      vertex -98.25 -14.201 259
      vertex -97.701 -14.75 261
      vertex -98.25 -14.201 261
    endloop
  endfacet
  facet normal -0.707104 -0.707109 -0
    outer loop
      vertex -97.701 -14.75 261
      vertex -98.25 -14.201 259
      vertex -97.701 -14.75 259
    endloop
  endfacet
  facet normal 0.258819 0.965926 -0
    outer loop
      vertex -99 -17 250
      vertex -99.75 -16.799 256
      vertex -99 -17 256
    endloop
  endfacet
  facet normal 0.258819 0.965926 0
    outer loop
      vertex -99.75 -16.799 256
      vertex -99 -17 250
      vertex -99.75 -16.799 250
    endloop
  endfacet
  facet normal 0.258819 0.965926 -0
    outer loop
      vertex -99 -17 259
      vertex -99.75 -16.799 261
      vertex -99 -17 261
    endloop
  endfacet
  facet normal 0.258819 0.965926 0
    outer loop
      vertex -99.75 -16.799 261
      vertex -99 -17 259
      vertex -99.75 -16.799 259
    endloop
  endfacet
  facet normal 0.965927 -0.258815 0
    outer loop
      vertex -100.5 -15.5 253
      vertex -100.299 -14.75 256
      vertex -100.5 -15.5 256
    endloop
  endfacet
  facet normal 0.965927 -0.258815 0
    outer loop
      vertex -100.299 -14.75 256
      vertex -100.5 -15.5 253
      vertex -100.299 -14.75 250
    endloop
  endfacet
  facet normal 0.965927 -0.258815 0
    outer loop
      vertex -100.299 -14.75 250
      vertex -100.5 -15.5 253
      vertex -100.5 -15.5 250
    endloop
  endfacet
  facet normal 0.965927 -0.258815 0
    outer loop
      vertex -100.5 -15.5 261
      vertex -100.299 -14.75 259
      vertex -100.299 -14.75 261
    endloop
  endfacet
  facet normal 0.965927 -0.258815 0
    outer loop
      vertex -100.299 -14.75 259
      vertex -100.5 -15.5 261
      vertex -100.5 -15.5 259
    endloop
  endfacet
  facet normal 0.500001 -0.866025 0
    outer loop
      vertex -102.204 17.35 256
      vertex -99 19.2 259
      vertex -102.204 17.35 259
    endloop
  endfacet
  facet normal 0.500001 -0.866025 0
    outer loop
      vertex -99 19.2 259
      vertex -102.204 17.35 256
      vertex -99 19.2 256
    endloop
  endfacet
  facet normal 0 0 1
    outer loop
      vertex -96 19.2 256
      vertex -97.5 15.5 256
      vertex -96 11.8 256
    endloop
  endfacet
  facet normal 0 0 1
    outer loop
      vertex -96 19.2 256
      vertex -97.701 16.25 256
      vertex -97.5 15.5 256
    endloop
  endfacet
  facet normal 0 0 1
    outer loop
      vertex -96 19.2 256
      vertex -98.25 16.799 256
      vertex -97.701 16.25 256
    endloop
  endfacet
  facet normal -0 0 1
    outer loop
      vertex -99 19.2 256
      vertex -98.25 16.799 256
      vertex -96 19.2 256
    endloop
  endfacet
  facet normal 0 0 1
    outer loop
      vertex -99 19.2 256
      vertex -99 17 256
      vertex -98.25 16.799 256
    endloop
  endfacet
  facet normal 0 0 1
    outer loop
      vertex -99 19.2 256
      vertex -99.75 16.799 256
      vertex -99 17 256
    endloop
  endfacet
  facet normal -0 0 1
    outer loop
      vertex -102.204 17.35 256
      vertex -99.75 16.799 256
      vertex -99 19.2 256
    endloop
  endfacet
  facet normal 0 0 1
    outer loop
      vertex -100.299 16.25 256
      vertex -102.204 17.35 256
      vertex -100.5 15.5 256
    endloop
  endfacet
  facet normal 0 0 1
    outer loop
      vertex -99.75 16.799 256
      vertex -102.204 17.35 256
      vertex -100.299 16.25 256
    endloop
  endfacet
  facet normal -0 0 1
    outer loop
      vertex -97.701 14.75 256
      vertex -96 11.8 256
      vertex -97.5 15.5 256
    endloop
  endfacet
  facet normal -0 0 1
    outer loop
      vertex -98.25 14.201 256
      vertex -96 11.8 256
      vertex -97.701 14.75 256
    endloop
  endfacet
  facet normal 0 0 1
    outer loop
      vertex -99 11.8 256
      vertex -98.25 14.201 256
      vertex -99 14 256
    endloop
  endfacet
  facet normal 0 0 1
    outer loop
      vertex -98.25 14.201 256
      vertex -99 11.8 256
      vertex -96 11.8 256
    endloop
  endfacet
  facet normal 0 0 1
    outer loop
      vertex -99.75 14.201 256
      vertex -99 11.8 256
      vertex -99 14 256
    endloop
  endfacet
  facet normal 0 0 1
    outer loop
      vertex -102.204 13.65 256
      vertex -99.75 14.201 256
      vertex -100.299 14.75 256
    endloop
  endfacet
  facet normal 0 0 1
    outer loop
      vertex -102.204 13.65 256
      vertex -100.5 15.5 256
      vertex -102.204 17.35 256
    endloop
  endfacet
  facet normal 0 0 1
    outer loop
      vertex -100.5 15.5 256
      vertex -102.204 13.65 256
      vertex -100.299 14.75 256
    endloop
  endfacet
  facet normal 0 0 1
    outer loop
      vertex -99.75 14.201 256
      vertex -102.204 13.65 256
      vertex -99 11.8 256
    endloop
  endfacet
  facet normal 1 -0 0
    outer loop
      vertex -102.204 13.65 259
      vertex -102.204 17.35 256
      vertex -102.204 17.35 259
    endloop
  endfacet
  facet normal 1 0 0
    outer loop
      vertex -102.204 17.35 256
      vertex -102.204 13.65 259
      vertex -102.204 13.65 256
    endloop
  endfacet
  facet normal 0 1 -0
    outer loop
      vertex -96 11.8 256
      vertex -99 11.8 259
      vertex -96 11.8 259
    endloop
  endfacet
  facet normal 0 1 0
    outer loop
      vertex -99 11.8 259
      vertex -96 11.8 256
      vertex -99 11.8 256
    endloop
  endfacet
  facet normal 0 -1 0
    outer loop
      vertex -99 19.2 256
      vertex -96 19.2 259
      vertex -99 19.2 259
    endloop
  endfacet
  facet normal 0 -1 -0
    outer loop
      vertex -96 19.2 259
      vertex -99 19.2 256
      vertex -96 19.2 256
    endloop
  endfacet
  facet normal 0.5 0.866025 -0
    outer loop
      vertex -99 11.8 256
      vertex -102.204 13.65 259
      vertex -99 11.8 259
    endloop
  endfacet
  facet normal 0.5 0.866025 0
    outer loop
      vertex -102.204 13.65 259
      vertex -99 11.8 256
      vertex -102.204 13.65 256
    endloop
  endfacet
  facet normal 0 0 -1
    outer loop
      vertex -96 11.8 259
      vertex -97.5 15.5 259
      vertex -96 19.2 259
    endloop
  endfacet
  facet normal 0 0 -1
    outer loop
      vertex -96 11.8 259
      vertex -97.701 14.75 259
      vertex -97.5 15.5 259
    endloop
  endfacet
  facet normal 0 0 -1
    outer loop
      vertex -96 11.8 259
      vertex -98.25 14.201 259
      vertex -97.701 14.75 259
    endloop
  endfacet
  facet normal 0 0 -1
    outer loop
      vertex -99 11.8 259
      vertex -98.25 14.201 259
      vertex -96 11.8 259
    endloop
  endfacet
  facet normal 0 0 -1
    outer loop
      vertex -99 11.8 259
      vertex -99 14 259
      vertex -98.25 14.201 259
    endloop
  endfacet
  facet normal 0 0 -1
    outer loop
      vertex -99 11.8 259
      vertex -99.75 14.201 259
      vertex -99 14 259
    endloop
  endfacet
  facet normal 0 0 -1
    outer loop
      vertex -102.204 13.65 259
      vertex -99.75 14.201 259
      vertex -99 11.8 259
    endloop
  endfacet
  facet normal -0 0 -1
    outer loop
      vertex -100.299 14.75 259
      vertex -102.204 13.65 259
      vertex -100.5 15.5 259
    endloop
  endfacet
  facet normal -0 0 -1
    outer loop
      vertex -99.75 14.201 259
      vertex -102.204 13.65 259
      vertex -100.299 14.75 259
    endloop
  endfacet
  facet normal 0 0 -1
    outer loop
      vertex -97.701 16.25 259
      vertex -96 19.2 259
      vertex -97.5 15.5 259
    endloop
  endfacet
  facet normal 0 0 -1
    outer loop
      vertex -98.25 16.799 259
      vertex -96 19.2 259
      vertex -97.701 16.25 259
    endloop
  endfacet
  facet normal 0 0 -1
    outer loop
      vertex -99 19.2 259
      vertex -98.25 16.799 259
      vertex -99 17 259
    endloop
  endfacet
  facet normal 0 0 -1
    outer loop
      vertex -98.25 16.799 259
      vertex -99 19.2 259
      vertex -96 19.2 259
    endloop
  endfacet
  facet normal 0 0 -1
    outer loop
      vertex -99.75 16.799 259
      vertex -99 19.2 259
      vertex -99 17 259
    endloop
  endfacet
  facet normal 0 0 -1
    outer loop
      vertex -102.204 17.35 259
      vertex -99.75 16.799 259
      vertex -100.299 16.25 259
    endloop
  endfacet
  facet normal 0 0 -1
    outer loop
      vertex -102.204 17.35 259
      vertex -100.5 15.5 259
      vertex -102.204 13.65 259
    endloop
  endfacet
  facet normal 0 0 -1
    outer loop
      vertex -100.5 15.5 259
      vertex -102.204 17.35 259
      vertex -100.299 16.25 259
    endloop
  endfacet
  facet normal 0 0 -1
    outer loop
      vertex -99.75 16.799 259
      vertex -102.204 17.35 259
      vertex -99 19.2 259
    endloop
  endfacet
  facet normal -0.965927 -0.258815 0
    outer loop
      vertex -97.5 15.5 259
      vertex -97.701 16.25 261
      vertex -97.701 16.25 259
    endloop
  endfacet
  facet normal -0.965927 -0.258815 0
    outer loop
      vertex -97.701 16.25 261
      vertex -97.5 15.5 259
      vertex -97.5 15.5 261
    endloop
  endfacet
  facet normal -0.965927 -0.258815 0
    outer loop
      vertex -97.5 15.5 250
      vertex -97.701 16.25 256
      vertex -97.701 16.25 250
    endloop
  endfacet
  facet normal -0.965927 -0.258815 0
    outer loop
      vertex -97.701 16.25 256
      vertex -97.5 15.5 250
      vertex -97.5 15.5 256
    endloop
  endfacet
  facet normal 0.965927 0.258815 0
    outer loop
      vertex -100.299 14.75 256
      vertex -100.5 15.5 253
      vertex -100.5 15.5 256
    endloop
  endfacet
  facet normal 0.965927 0.258815 -0
    outer loop
      vertex -100.299 14.75 250
      vertex -100.5 15.5 253
      vertex -100.299 14.75 256
    endloop
  endfacet
  facet normal 0.965927 0.258815 0
    outer loop
      vertex -100.5 15.5 253
      vertex -100.299 14.75 250
      vertex -100.5 15.5 250
    endloop
  endfacet
  facet normal 0.965927 0.258815 0
    outer loop
      vertex -100.299 14.75 261
      vertex -100.5 15.5 259
      vertex -100.5 15.5 261
    endloop
  endfacet
  facet normal 0.965927 0.258815 0
    outer loop
      vertex -100.5 15.5 259
      vertex -100.299 14.75 261
      vertex -100.299 14.75 259
    endloop
  endfacet
  facet normal 0.258819 -0.965926 0
    outer loop
      vertex -99.75 16.799 256
      vertex -99 17 253.433
      vertex -99 17 256
    endloop
  endfacet
  facet normal 0.258819 -0.965926 0
    outer loop
      vertex -99.75 16.799 256
      vertex -99 17 252.567
      vertex -99 17 253.433
    endloop
  endfacet
  facet normal 0.258819 -0.965926 0
    outer loop
      vertex -99.75 16.799 250
      vertex -99 17 252.567
      vertex -99.75 16.799 256
    endloop
  endfacet
  facet normal 0.258819 -0.965926 0
    outer loop
      vertex -99 17 252.567
      vertex -99.75 16.799 250
      vertex -99 17 250
    endloop
  endfacet
  facet normal 0.258819 -0.965926 0
    outer loop
      vertex -99.75 16.799 259
      vertex -99 17 261
      vertex -99.75 16.799 261
    endloop
  endfacet
  facet normal 0.258819 -0.965926 0
    outer loop
      vertex -99 17 261
      vertex -99.75 16.799 259
      vertex -99 17 259
    endloop
  endfacet
  facet normal 0.707104 -0.707109 0
    outer loop
      vertex -100.299 16.25 259
      vertex -99.75 16.799 261
      vertex -100.299 16.25 261
    endloop
  endfacet
  facet normal 0.707104 -0.707109 0
    outer loop
      vertex -99.75 16.799 261
      vertex -100.299 16.25 259
      vertex -99.75 16.799 259
    endloop
  endfacet
  facet normal 0.707104 -0.707109 0
    outer loop
      vertex -100.299 16.25 250
      vertex -99.75 16.799 256
      vertex -100.299 16.25 256
    endloop
  endfacet
  facet normal 0.707104 -0.707109 0
    outer loop
      vertex -99.75 16.799 256
      vertex -100.299 16.25 250
      vertex -99.75 16.799 250
    endloop
  endfacet
  facet normal -0.707105 0.707109 0
    outer loop
      vertex -97.701 14.75 259
      vertex -98.25 14.201 261
      vertex -97.701 14.75 261
    endloop
  endfacet
  facet normal -0.707105 0.707109 0
    outer loop
      vertex -98.25 14.201 261
      vertex -97.701 14.75 259
      vertex -98.25 14.201 259
    endloop
  endfacet
  facet normal -0.707105 0.707109 0
    outer loop
      vertex -97.701 14.75 250
      vertex -98.25 14.201 256
      vertex -97.701 14.75 256
    endloop
  endfacet
  facet normal -0.707105 0.707109 0
    outer loop
      vertex -98.25 14.201 256
      vertex -97.701 14.75 250
      vertex -98.25 14.201 250
    endloop
  endfacet
  facet normal 0.707105 0.707109 -0
    outer loop
      vertex -99.75 14.201 259
      vertex -100.299 14.75 261
      vertex -99.75 14.201 261
    endloop
  endfacet
  facet normal 0.707105 0.707109 0
    outer loop
      vertex -100.299 14.75 261
      vertex -99.75 14.201 259
      vertex -100.299 14.75 259
    endloop
  endfacet
  facet normal 0.707105 0.707109 -0
    outer loop
      vertex -99.75 14.201 250
      vertex -100.299 14.75 256
      vertex -99.75 14.201 256
    endloop
  endfacet
  facet normal 0.707105 0.707109 0
    outer loop
      vertex -100.299 14.75 256
      vertex -99.75 14.201 250
      vertex -100.299 14.75 250
    endloop
  endfacet
  facet normal -0.258819 -0.965926 0
    outer loop
      vertex -99 17 253.433
      vertex -98.25 16.799 256
      vertex -99 17 256
    endloop
  endfacet
  facet normal -0.258819 -0.965926 0
    outer loop
      vertex -99 17 252.567
      vertex -98.25 16.799 256
      vertex -99 17 253.433
    endloop
  endfacet
  facet normal -0.258819 -0.965926 0
    outer loop
      vertex -98.25 16.799 250
      vertex -99 17 252.567
      vertex -99 17 250
    endloop
  endfacet
  facet normal -0.258819 -0.965926 0
    outer loop
      vertex -99 17 252.567
      vertex -98.25 16.799 250
      vertex -98.25 16.799 256
    endloop
  endfacet
  facet normal -0.258819 -0.965926 0
    outer loop
      vertex -99 17 259
      vertex -98.25 16.799 261
      vertex -99 17 261
    endloop
  endfacet
  facet normal -0.258819 -0.965926 -0
    outer loop
      vertex -98.25 16.799 261
      vertex -99 17 259
      vertex -98.25 16.799 259
    endloop
  endfacet
  facet normal -0.707104 -0.707109 0
    outer loop
      vertex -98.25 16.799 259
      vertex -97.701 16.25 261
      vertex -98.25 16.799 261
    endloop
  endfacet
  facet normal -0.707104 -0.707109 -0
    outer loop
      vertex -97.701 16.25 261
      vertex -98.25 16.799 259
      vertex -97.701 16.25 259
    endloop
  endfacet
  facet normal -0.707104 -0.707109 0
    outer loop
      vertex -98.25 16.799 250
      vertex -97.701 16.25 256
      vertex -98.25 16.799 256
    endloop
  endfacet
  facet normal -0.707104 -0.707109 -0
    outer loop
      vertex -97.701 16.25 256
      vertex -98.25 16.799 250
      vertex -97.701 16.25 250
    endloop
  endfacet
  facet normal 0.965927 -0.258815 0
    outer loop
      vertex -100.5 15.5 253
      vertex -100.299 16.25 256
      vertex -100.5 15.5 256
    endloop
  endfacet
  facet normal 0.965927 -0.258815 0
    outer loop
      vertex -100.299 16.25 256
      vertex -100.5 15.5 253
      vertex -100.299 16.25 250
    endloop
  endfacet
  facet normal 0.965927 -0.258815 0
    outer loop
      vertex -100.299 16.25 250
      vertex -100.5 15.5 253
      vertex -100.5 15.5 250
    endloop
  endfacet
  facet normal 0.965927 -0.258815 0
    outer loop
      vertex -100.5 15.5 261
      vertex -100.299 16.25 259
      vertex -100.299 16.25 261
    endloop
  endfacet
  facet normal 0.965927 -0.258815 0
    outer loop
      vertex -100.299 16.25 259
      vertex -100.5 15.5 261
      vertex -100.5 15.5 259
    endloop
  endfacet
  facet normal 0.258818 0.965926 -0
    outer loop
      vertex -99 14 259
      vertex -99.75 14.201 261
      vertex -99 14 261
    endloop
  endfacet
  facet normal 0.258818 0.965926 0
    outer loop
      vertex -99.75 14.201 261
      vertex -99 14 259
      vertex -99.75 14.201 259
    endloop
  endfacet
  facet normal 0.258818 0.965926 -0
    outer loop
      vertex -99 14 250
      vertex -99.75 14.201 256
      vertex -99 14 256
    endloop
  endfacet
  facet normal 0.258818 0.965926 0
    outer loop
      vertex -99.75 14.201 256
      vertex -99 14 250
      vertex -99.75 14.201 250
    endloop
  endfacet
  facet normal -0.965927 0.258815 0
    outer loop
      vertex -97.701 14.75 259
      vertex -97.5 15.5 261
      vertex -97.5 15.5 259
    endloop
  endfacet
  facet normal -0.965927 0.258815 0
    outer loop
      vertex -97.5 15.5 261
      vertex -97.701 14.75 259
      vertex -97.701 14.75 261
    endloop
  endfacet
  facet normal -0.965927 0.258815 0
    outer loop
      vertex -97.701 14.75 250
      vertex -97.5 15.5 256
      vertex -97.5 15.5 250
    endloop
  endfacet
  facet normal -0.965927 0.258815 0
    outer loop
      vertex -97.5 15.5 256
      vertex -97.701 14.75 250
      vertex -97.701 14.75 256
    endloop
  endfacet
  facet normal -0.258818 0.965926 0
    outer loop
      vertex -98.25 14.201 259
      vertex -99 14 261
      vertex -98.25 14.201 261
    endloop
  endfacet
  facet normal -0.258818 0.965926 0
    outer loop
      vertex -99 14 261
      vertex -98.25 14.201 259
      vertex -99 14 259
    endloop
  endfacet
  facet normal -0.258818 0.965926 0
    outer loop
      vertex -98.25 14.201 250
      vertex -99 14 256
      vertex -98.25 14.201 256
    endloop
  endfacet
  facet normal -0.258818 0.965926 0
    outer loop
      vertex -99 14 256
      vertex -98.25 14.201 250
      vertex -99 14 250
    endloop
  endfacet
endsolid OpenSCAD_Model
